<?xml version="1.0" encoding="utf-8"?>
<!-- Generator: Adobe Illustrator 19.0.0, SVG Export Plug-In . SVG Version: 6.00 Build 0)  -->
<svg version="1.1" id="Layer_1" xmlns="http://www.w3.org/2000/svg" xmlns:xlink="http://www.w3.org/1999/xlink" x="0px" y="0px"
	 viewBox="0 0 193 192" style="enable-background:new 0 0 193 192;" xml:space="preserve">
<style type="text/css">
	.st0{fill:#817977;}
	.st1{fill:#7B7270;}
	.st2{fill:#2E9F96;}
	.st3{fill:#D4A48A;}
	.st4{fill:#F1F2F1;}
	.st5{fill:#E6E7E8;}
	.st6{fill:#E5BDA5;}
	.st7{fill:#EED4BB;}
	.st8{fill:#2F343A;}
	.st9{fill:#9EB0BB;}
	.st10{fill:#FFFFFF;}
	.st11{fill:none;}
</style>
<path class="st0" d="M184,95.9c0-46.9-38.1-85-85-85c-46.9,0-85,38.1-85,85c0,46.9,38.1,85,85,85C146,180.9,184,142.9,184,95.9"/>
<path class="st1" d="M184,95.9c0-46.9-38.1-85-85-85v170C146,180.9,184,142.9,184,95.9"/>
<path class="st2" d="M184,95.9c0-46.9-38.1-85-85-85c-46.9,0-85,38.1-85,85c0,46.9,38.1,85,85,85C146,180.9,184,142.9,184,95.9"/>
<g>
	<polygon class="st3" points="111.5,144.6 99.3,174.1 86.6,144.6 86.6,117.4 111.5,117.4 	"/>
	<path class="st4" d="M86.6,133.6c0,0-26.7,3.5-30.2,7.1c-3,3.2-9.4,33.5-10.8,40.2c41.6,0,53.5,0,53.5,0v-16L86.6,133.6z"/>
	<path class="st5" d="M111.5,133.6c0,0,26.7,3.5,30.2,7.1c3,3.2,9.4,33.5,10.8,40.2c-41.6,0-53.5,0-53.5,0v-16L111.5,133.6z"/>
	<g>
		<path class="st6" d="M99,39.2c12.1,0,31.2,6.9,31.2,39.1c0,18.6-6.1,30.8-8.7,34.1c-2.4,3.1-16.1,9.7-22.5,9.7
			C99,89.6,99,39.2,99,39.2z"/>
		<path class="st6" d="M136.2,86c0.5-5.1-1.9-9.7-5.5-10.2c-3.6-0.5-6.9,3.3-7.4,8.4c-0.5,5.1,1.9,9.7,5.5,10.2
			C132.4,94.9,135.7,91.1,136.2,86z"/>
	</g>
	<g>
		<path class="st7" d="M99,39.2c-12.1,0-31.2,6.9-31.2,39.1c0,18.6,6.1,30.8,8.7,34.1c2.4,3.1,16.1,9.7,22.5,9.7
			C99,89.6,99,39.2,99,39.2z"/>
		<path class="st7" d="M61.8,86c-0.5-5.1,1.9-9.7,5.5-10.2c3.6-0.5,6.9,3.3,7.4,8.4c0.5,5.1-1.9,9.7-5.5,10.2
			C65.7,94.9,62.4,91.1,61.8,86z"/>
	</g>
	<path class="st8" d="M72,86.6h2.2c0,0-1.3-8.4,2.5-11.1c0-4.2,0-5.4,0-5.4s-1.5-0.2-1.5-6.5c0-6.4,7.6-10.9,23.8-10.9
		c0-9.1,0-23.3,0-23.3s-32.1,0.7-32.1,24c0,9.7,0,22.6,0,22.6s2.3-0.4,4,1C72.7,78.3,72,86.6,72,86.6z"/>
	<path class="st8" d="M126.1,86.6h-2.2c0,0,1.3-8.4-2.5-11.1c0-4.2,0-5.4,0-5.4s1.5-0.2,1.5-6.5c0-6.4-7.6-10.9-23.8-10.9
		c0-9.1,0-23.3,0-23.3s32.1-0.7,32.1,22.6c0,9.7,0,24,0,24s-2.3-0.4-4,1C125.3,78.3,126.1,86.6,126.1,86.6z"/>
	<g>
		<polygon class="st9" points="99,164.9 90.6,136 87.5,149 		"/>
		<polygon class="st10" points="86.2,130.6 90.7,136.4 87.5,149 80.6,139.8 		"/>
	</g>
	<g>
		<polygon class="st9" points="99,164.9 106.7,135.7 110.6,149 		"/>
		<polygon class="st10" points="111.8,130.6 106.6,136.1 110.6,149 118,139.8 		"/>
	</g>
	<path class="st10" d="M99,108.3c5.6,0,10.2-1.9,10.2-4.2H88.8C88.8,106.4,93.4,108.3,99,108.3z"/>
</g>
<path class="st11" d="M184,95.9c0-46.9-38.1-85-85-85c-46.9,0-85,38.1-85,85c0,46.9,38.1,85,85,85C146,180.9,184,142.9,184,95.9"/>
</svg>
