<?xml version="1.0" encoding="utf-8"?>
<!-- Generator: Adobe Illustrator 16.0.0, SVG Export Plug-In . SVG Version: 6.00 Build 0)  -->
<!DOCTYPE svg PUBLIC "-//W3C//DTD SVG 1.1//EN" "http://www.w3.org/Graphics/SVG/1.1/DTD/svg11.dtd">
<svg version="1.1" id="레이어_1" xmlns="http://www.w3.org/2000/svg" xmlns:xlink="http://www.w3.org/1999/xlink" x="0px"
	 y="0px" width="725.67px" height="725.67px" viewBox="0 0 725.67 725.67" enable-background="new 0 0 725.67 725.67"
	 xml:space="preserve">
<g>
	<g>
		<path fill="#555E71" d="M1985.874-150.86c-2.869,0-5.743-0.896-8.17-2.687c-4.042-2.986-99.33-74.225-132.042-173.152
			c-2.382-7.212,1.531-14.988,8.738-17.375c7.217-2.386,14.993,1.527,17.379,8.739c24.618,74.462,90.869,134.012,114.095,153.164
			c22.729-18.731,86.644-76.132,112.452-148.325c2.557-7.154,10.422-10.888,17.58-8.322c7.154,2.556,10.879,10.426,8.322,17.58
			c-34.363,96.125-126.289,164.812-130.184,167.691C1991.613-151.756,1988.744-150.86,1985.874-150.86z"/>
	</g>
	<g>
		<path fill="#555E71" d="M1886.53-615.393c-0.313,0-0.627-0.009-0.94-0.031c-7.579-0.51-13.309-7.073-12.794-14.648
			c4.463-65.965,52.409-117.636,109.152-117.636c54.236,0.004,100.839,47.199,108.409,109.779
			c0.909,7.543-4.463,14.393-12.002,15.306c-7.534,0.904-14.393-4.459-15.306-12.002c-5.896-48.784-40.766-85.574-81.102-85.578
			c-42.328,0-78.218,40.403-81.71,91.984C1899.746-620.958,1893.702-615.393,1886.53-615.393z"/>
	</g>
	<g>
		<path fill="#555E71" d="M1748.046-202.522c-0.014,0-0.014,0-0.027,0c-24.25-0.009-49.374-11.411-74.686-33.889
			c-49.947-44.356-64.206-99.76-41.24-160.206c22.106-58.18,77.251-121.101,163.913-187.013
			c34.135-25.965,65.732-46.576,86.231-59.295c38.872-24.121,42.391-24.121,45.497-24.121c1.486,0,2.964,0.242,4.374,0.712
			l3.931,1.32c6.124,2.055,9.992,8.09,9.298,14.509c-0.116,1.102-12.177,111.23-40.936,219.917
			C1864.361-279.263,1811.746-202.522,1748.046-202.522z M1915.352-631.165c-61.739,35.559-247.825,158.37-265.28,273.021
			c-5.802,38.106,7.781,71.199,41.526,101.166c20.128,17.876,39.114,26.941,56.431,26.95
			C1844.077-229.997,1898.716-501.249,1915.352-631.165z"/>
	</g>
	<g>
		<path fill="#555E71" d="M2220.023-202.522c-63.714,0-116.329-76.741-156.379-228.083
			c-28.754-108.678-40.818-218.798-40.936-219.899c-0.693-6.419,3.179-12.459,9.303-14.514l3.936-1.316
			c1.41-0.475,2.883-0.712,4.369-0.712c3.103,0,6.621,0,45.498,24.121c20.494,12.719,52.092,33.33,86.231,59.295
			c86.652,65.912,141.802,128.833,163.907,187.013c22.967,60.446,8.703,115.85-41.244,160.206
			C2269.393-213.925,2244.26-202.522,2220.023-202.522z M2052.695-631.165c16.635,129.907,71.278,401.137,167.328,401.137
			c17.303,0,36.288-9.07,56.42-26.95c33.746-29.967,47.334-63.06,41.531-101.162
			C2300.524-472.781,2114.438-595.601,2052.695-631.165z"/>
	</g>
	<g>
		<path fill="#555E71" d="M1980.091-537.394c-51.08,0-64.483-14.165-67.873-20.257c-3.662-6.572-0.993-14.707,5.959-18.171
			c6.37-3.179,14.138-1.316,18.202,4.083c1.42,1.087,11.156,7.44,43.712,7.44c37.488,0,47.48-8.457,47.579-8.542
			c-0.636,0.555,12.006-16.045,12.006-16.045l10.056,32.949C2046.342-551.585,2031.301-537.394,1980.091-537.394z"/>
	</g>
	<g>
		<path fill="#555E71" d="M2062.575-457.43h-153.356c-7.598,0-13.753-6.16-13.753-13.752s6.155-13.753,13.753-13.753h153.356
			c7.597,0,13.753,6.16,13.753,13.753S2070.172-457.43,2062.575-457.43z"/>
	</g>
	<g>
		<path fill="#555E71" d="M2090.014-364.103h-202.562c-7.597,0-13.752-6.156-13.752-13.753s6.155-13.752,13.752-13.752h202.562
			c7.597,0,13.752,6.155,13.752,13.752S2097.61-364.103,2090.014-364.103z"/>
	</g>
	<g>
		<path fill="#555E71" d="M2082.922-270.775h-195.514c-7.598,0-13.753-6.16-13.753-13.753c0-7.597,6.155-13.752,13.753-13.752
			h195.514c7.598,0,13.753,6.156,13.753,13.752C2096.675-276.936,2090.52-270.775,2082.922-270.775z"/>
	</g>
</g>
<g>
	<g>
		<path fill="#555E71" d="M1404.335,2269.474H943.637c-17.518,0-31.774-14.256-31.774-31.773v-521.969
			c0-7.522,6.095-13.617,13.618-13.617c7.522,0,13.617,6.095,13.617,13.617V2237.7c0,2.504,2.035,4.539,4.539,4.539h460.698
			c2.505,0,4.539-2.035,4.539-4.539v-521.969c0-7.522,6.095-13.617,13.618-13.617s13.618,6.095,13.618,13.617V2237.7
			C1436.109,2255.218,1421.854,2269.474,1404.335,2269.474z"/>
	</g>
	<g>
		<path fill="#555E71" d="M1340.423,1910.419h-332.87c-17.519,0-31.774-13.439-31.774-29.961v-49.021
			c0-16.518,14.256-29.957,31.774-29.957h332.87c17.518,0,31.774,13.439,31.774,29.957v49.021
			C1372.197,1896.979,1357.941,1910.419,1340.423,1910.419z M1007.553,1828.714c-2.731,0-4.54,1.641-4.54,2.723v49.021
			c0,1.086,1.809,2.727,4.54,2.727h332.87c2.73,0,4.539-1.641,4.539-2.727v-49.021c0-1.082-1.809-2.723-4.539-2.723H1007.553z"/>
	</g>
	<g>
		<g>
			<path fill="#555E71" d="M1043.866,2347.686h-39.341c-17.518,0-31.774-14.256-31.774-31.774v-48.414
				c0-7.522,6.095-13.617,13.617-13.617s13.618,6.095,13.618,13.617v48.414c0,2.505,2.035,4.539,4.539,4.539h39.341
				c2.505,0,4.539-2.034,4.539-4.539v-48.414c0-7.522,6.095-13.617,13.618-13.617s13.618,6.095,13.618,13.617v48.414
				C1075.641,2333.43,1061.385,2347.686,1043.866,2347.686z"/>
		</g>
		<g>
			<path fill="#555E71" d="M1343.451,2347.686h-39.341c-17.518,0-31.774-14.256-31.774-31.774v-48.414
				c0-7.522,6.095-13.617,13.617-13.617s13.618,6.095,13.618,13.617v48.414c0,2.505,2.035,4.539,4.539,4.539h39.341
				c2.504,0,4.539-2.034,4.539-4.539v-48.414c0-7.522,6.095-13.617,13.617-13.617s13.618,6.095,13.618,13.617v48.414
				C1375.225,2333.43,1360.969,2347.686,1343.451,2347.686z"/>
		</g>
	</g>
	<g>
		<path fill="#555E71" d="M1465.011,1727.337h-582.05c-17.23,0-31.251-14.256-31.251-31.774v-42.368
			c0-17.519,14.021-31.774,31.251-31.774h582.05c17.235,0,31.256,14.256,31.256,31.774v42.368
			C1496.267,1713.081,1482.246,1727.337,1465.011,1727.337z M882.961,1648.655c-2.216,0-4.016,2.034-4.016,4.539v42.368
			c0,2.505,1.8,4.539,4.016,4.539h582.05c2.216,0,4.021-2.034,4.021-4.539v-42.368c0-2.505-1.804-4.539-4.021-4.539H882.961z"/>
	</g>
</g>
<g>
	<g>
		<path fill="#555E71" d="M2056.246,489.821h-130.153c-5.014,0-9.646-2.674-12.161-7.016l-65.073-112.712
			c-2.505-4.346-2.505-9.694,0-14.041l65.073-112.712c2.515-4.342,7.147-7.02,12.161-7.02h130.153c5.014,0,9.648,2.678,12.158,7.02
			l65.073,112.712c2.51,4.346,2.51,9.694,0,14.041l-65.073,112.712C2065.895,487.147,2061.26,489.821,2056.246,489.821z
			 M1934.198,461.745h113.94l56.967-98.671l-56.967-98.671h-113.94l-56.967,98.671L1934.198,461.745z"/>
	</g>
	<g>
		<path fill="#555E71" d="M2253.703,368.536c-2.381,0-4.794-0.608-7.006-1.884c-6.719-3.88-9.013-12.468-5.137-19.182l61.02-105.691
			l-56.971-98.676h-122.04c-7.757,0-14.04-6.285-14.04-14.041c0-7.751,6.283-14.041,14.04-14.041h130.147
			c5.019,0,9.653,2.678,12.157,7.02l65.079,112.717c2.51,4.341,2.51,9.698,0,14.041l-65.079,112.711
			C2263.279,366.013,2258.558,368.536,2253.703,368.536z"/>
	</g>
	<g>
		<path fill="#555E71" d="M1714.916,368.536c-4.854,0-9.575-2.523-12.175-7.026l-65.074-112.711c-2.51-4.343-2.51-9.699,0-14.041
			l65.074-112.717c2.509-4.342,7.144-7.02,12.157-7.02h130.147c7.757,0,14.041,6.289,14.041,14.041
			c0,7.756-6.284,14.041-14.041,14.041h-122.04l-56.966,98.676l61.02,105.691c3.876,6.714,1.578,15.302-5.141,19.182
			C1719.711,367.922,1717.292,368.536,1714.916,368.536z"/>
	</g>
	<g>
		<path fill="#555E71" d="M2254.467,604.379h-130.148c-7.756,0-14.04-6.284-14.04-14.041c0-7.756,6.284-14.04,14.04-14.04h122.045
			l56.962-98.672l-56.962-98.676h-122.045c-7.756,0-14.04-6.284-14.04-14.041c0-7.756,6.284-14.041,14.04-14.041h130.148
			c5.019,0,9.653,2.674,12.162,7.02l65.069,112.717c2.504,4.346,2.504,9.699,0,14.041l-65.069,112.712
			C2264.12,601.701,2259.485,604.379,2254.467,604.379z"/>
	</g>
	<g>
		<path fill="#555E71" d="M1848.41,604.379h-130.148c-5.018,0-9.652-2.674-12.162-7.02l-65.078-112.712
			c-2.505-4.342-2.505-9.694,0-14.041L1706.1,357.89c2.51-4.346,7.145-7.02,12.162-7.02h130.148c7.752,0,14.041,6.285,14.041,14.041
			c0,7.756-6.289,14.041-14.041,14.041h-122.045l-56.971,98.676l56.971,98.672h122.045c7.752,0,14.041,6.284,14.041,14.04
			C1862.451,598.095,1856.162,604.379,1848.41,604.379z"/>
	</g>
	<g>
		<path fill="#555E71" d="M2056.246,725.67h-130.153c-5.014,0-9.646-2.674-12.161-7.021l-65.073-112.707
			c-2.505-4.342-2.505-9.698,0-14.041l65.073-112.711c3.881-6.714,12.469-9.018,19.183-5.142c6.714,3.88,9.018,12.468,5.142,19.182
			l-61.024,105.691l56.967,98.667h113.94l56.967-98.667l-61.021-105.691c-3.876-6.714-1.577-15.302,5.142-19.182
			c6.715-3.867,15.302-1.573,19.178,5.142l65.073,112.711c2.51,4.342,2.51,9.699,0,14.041l-65.073,112.707
			C2065.895,722.996,2061.26,725.67,2056.246,725.67z"/>
	</g>
	<g>
		<path fill="#555E71" d="M1919.37,253.981c-4.853,0-9.57-2.519-12.176-7.02l-65.073-112.716c-2.509-4.347-2.509-9.699,0-14.041
			l65.073-112.717c2.515-4.342,7.149-7.02,12.162-7.02h130.153c5.014,0,9.648,2.678,12.158,7.02l65.073,112.717
			c2.504,4.342,2.504,9.694,0,14.041l-65.073,112.716c-3.877,6.709-12.455,9.022-19.178,5.137
			c-6.719-3.876-9.018-12.464-5.143-19.178l61.02-105.696l-56.966-98.676h-113.94l-56.966,98.676l61.023,105.696
			c3.877,6.714,1.572,15.302-5.142,19.178C1924.17,253.374,1921.752,253.981,1919.37,253.981z"/>
	</g>
</g>
<g>
	<g>
		<g>
			<path fill="#555E71" d="M2604.188-87.89c-2.369,0-4.738-0.616-6.861-1.838l-158.354-91.585
				c-4.238-2.454-6.848-6.977-6.843-11.875l0.134-182.93c0.004-4.898,2.618-9.417,6.861-11.862l158.487-91.349
				c4.243-2.445,9.462-2.445,13.704,0.009l58.387,33.771c6.554,3.787,8.793,12.169,5.001,18.723
				c-3.787,6.554-12.175,8.793-18.724,5.001l-51.538-29.804l-144.774,83.444l-0.125,167.107l144.658,83.658l144.775-83.448
				l0.018-18.754c0.004-7.566,6.143-13.696,13.704-13.696h0.014c7.565,0.009,13.695,6.147,13.69,13.718l-0.021,26.668
				c-0.005,4.894-2.619,9.417-6.861,11.862l-158.488,91.354C2608.912-88.501,2606.553-87.89,2604.188-87.89z"/>
		</g>
		<g>
			<path fill="#555E71" d="M2990.516-87.89c-2.369,0-4.737-0.616-6.861-1.838l-158.35-91.585c-4.238-2.454-6.848-6.977-6.843-11.875
				l0.022-26.552c0.004-7.566,6.143-13.691,13.704-13.691c0,0,0.009,0,0.013,0c7.566,0.004,13.696,6.147,13.691,13.718
				l-0.018,18.638l144.654,83.658l144.783-83.448l0.121-167.098l-144.654-83.667l-52.404,30.21
				c-6.562,3.778-14.94,1.521-18.714-5.028c-3.783-6.558-1.53-14.936,5.027-18.719l59.261-34.163
				c4.242-2.445,9.462-2.445,13.704,0.009l158.35,91.59c4.238,2.449,6.848,6.972,6.844,11.871l-0.13,182.926
				c-0.004,4.894-2.618,9.417-6.861,11.862l-158.496,91.354C2995.24-88.501,2992.88-87.89,2990.516-87.89z"/>
		</g>
		<g>
			<path fill="#555E71" d="M2904.114-478.964c-4.742,0-9.351-2.462-11.889-6.866c-3.778-6.558-1.526-14.94,5.032-18.714
				l44.887-25.874l0.129-167.103l-144.662-83.663l-144.771,83.449l-0.13,167.102l44.852,25.941
				c6.554,3.788,8.793,12.174,5.001,18.723c-3.788,6.553-12.179,8.797-18.724,5.001l-51.699-29.902
				c-4.237-2.454-6.848-6.977-6.843-11.875l0.139-182.921c0.004-4.898,2.618-9.421,6.86-11.866l158.484-91.345
				c4.242-2.445,9.461-2.445,13.704,0.009l158.358,91.586c4.238,2.449,6.848,6.977,6.844,11.875l-0.139,182.921
				c-0.004,4.898-2.619,9.417-6.861,11.862l-51.744,29.822C2908.789-479.557,2906.434-478.964,2904.114-478.964z"/>
		</g>
		<g>
			<path fill="#555E71" d="M2797.2-252.556c-62.669,0-113.654-50.981-113.654-113.65c0-24.656,15.698-65.399,47.997-124.571
				c26.11-47.827,53.911-90.408,54.192-90.827c2.529-3.872,6.839-6.201,11.465-6.201c4.622,0,8.936,2.329,11.465,6.196
				c10.462,15.979,102.189,157.779,102.189,215.402C2910.854-303.537,2859.869-252.556,2797.2-252.556z M2797.231-548.592
				c-10.358,16.6-26.294,42.853-41.635,70.948c-38.843,71.163-44.642,100.365-44.642,111.438c0,47.555,38.69,86.241,86.245,86.241
				s86.246-38.687,86.246-86.241C2883.446-403.072,2828.865-498.003,2797.231-548.592z"/>
		</g>
	</g>
	<g>
		<path fill="#555E71" d="M2808.188-298.229c-6.892,0-12.825-5.184-13.602-12.192c-0.838-7.521,4.586-14.298,12.107-15.132
			c30.889-3.43,29.457-42.754,29.381-44.427c-0.344-7.562,5.51-13.972,13.07-14.311c7.526-0.308,13.968,5.505,14.312,13.066
			c1.048,23.041-8.837,67.928-53.738,72.911C2809.205-298.255,2808.691-298.229,2808.188-298.229z"/>
	</g>
</g>
<g>
	<g>
		<g>
			<path fill="#555E71" d="M1425.218,728.335H922.296c-6.39,0-11.934-4.411-13.375-10.636c-4.632-20.021-6.614-41.555-5.894-64.007
				c3.604-111.737,27.201-248.183,178.939-312.002c6.994-2.94,15.038,0.349,17.978,7.338c2.938,6.989-0.344,15.033-7.333,17.974
				C956.056,424.435,934.018,544.601,930.47,654.578c-0.519,16.119,0.507,31.643,3.052,46.301h479.312
				c1.709-17.857,3.475-41.435,2.817-48.67c-8.754-96.285-20.744-228.149-180.68-283.232c-7.168-2.471-10.978-10.287-8.509-17.455
				c2.469-7.164,10.263-10.98,17.451-8.508c176.729,60.874,190.181,208.813,199.083,306.711c1.401,15.453-4.078,65.919-4.136,66.415
				C1438.079,723.084,1432.205,728.335,1425.218,728.335z"/>
		</g>
	</g>
	<g>
		<path fill="#555E71" d="M1167.36,398.252c-74.768,0-135.597-76.117-135.597-169.675c0-9.635,0.648-19.292,1.926-28.708
			c1.021-7.507,7.939-12.754,15.451-11.753c7.512,1.019,12.776,7.937,11.755,15.453c-1.113,8.187-1.676,16.606-1.676,25.007
			c0,78.418,48.511,142.219,108.141,142.219c59.633,0,108.149-63.801,108.149-142.219c0-8.446-0.57-16.91-1.694-25.15
			c-1.023-7.516,4.236-14.434,11.749-15.462c7.492-1.023,14.432,4.236,15.458,11.753c1.289,9.465,1.944,19.171,1.944,28.859
			C1302.965,322.135,1242.134,398.252,1167.36,398.252z"/>
	</g>
	<g>
		<path fill="#555E71" d="M1174.322,219.567c-133.706,0-277.612-25.619-277.612-81.873c-0.004-48.169,102.402-67.85,163.446-75.286
			c7.516-0.929,14.369,4.433,15.288,11.968c0.916,7.525-4.44,14.367-11.967,15.283c-104.232,12.709-139.31,38.306-139.31,48.035
			c0,18.47,88.296,54.417,250.156,54.417c161.86,0,250.156-35.947,250.156-54.417c0-10.005-36.269-36.139-144.045-48.598
			c-7.532-0.867-12.933-7.677-12.061-15.211c0.869-7.535,7.713-12.964,15.212-12.057c50.62,5.845,168.355,24.954,168.35,75.867
			C1451.935,193.948,1308.028,219.567,1174.322,219.567z"/>
	</g>
	<g>
		<path fill="#555E71" d="M1174.322,466.057c-133.706,0-277.612-25.624-277.612-81.877c0-7.579,6.147-13.728,13.728-13.728
			c7.582,0,13.729,6.149,13.729,13.728c0,18.47,88.296,54.421,250.156,54.421c161.86,0,250.156-35.952,250.156-54.421
			c0-7.579,6.147-13.728,13.728-13.728c7.582,0,13.728,6.149,13.728,13.728C1451.935,440.433,1308.028,466.057,1174.322,466.057z"/>
	</g>
	<g>
		<path fill="#555E71" d="M1174.32,174.839c-48.339,0-93.829-4.947-128.089-13.929c-5.921-1.555-10.1-6.837-10.243-12.959
			l-0.031-1.045c-0.029-0.894-0.056-1.788-0.056-2.686c0-79.522,62.094-144.221,138.418-144.221
			c76.327,0,138.423,64.699,138.423,144.221c0,0.898-0.027,1.792-0.056,2.686l-0.031,1.045c-0.143,6.123-4.321,11.404-10.243,12.959
			C1268.153,169.893,1222.664,174.839,1174.32,174.839z M1063.577,136.859c30.68,6.811,69.489,10.524,110.743,10.524
			c41.256,0,80.067-3.713,110.748-10.524c-3.62-60.972-51.909-109.405-110.748-109.405
			C1115.484,27.455,1067.197,75.887,1063.577,136.859z"/>
	</g>
	<g>
		<path fill="#555E71" d="M910.438,395.012c-7.581,0-13.728-6.149-13.728-13.728V137.695c0-7.583,6.147-13.728,13.728-13.728
			c7.582,0,13.729,6.145,13.729,13.728v243.589C924.167,388.863,918.02,395.012,910.438,395.012z"/>
	</g>
	<g>
		<path fill="#555E71" d="M1438.207,396.46c-7.581,0-13.728-6.149-13.728-13.728V139.147c0-7.583,6.147-13.729,13.728-13.729
			c7.582,0,13.728,6.145,13.728,13.729v243.584C1451.935,390.311,1445.788,396.46,1438.207,396.46z"/>
	</g>
</g>
<g>
	<g>
		<g>
			<g>
				<path fill="#555E71" d="M649.189-114.756h-0.002c-19.13,0-37.417-7.143-51.49-20.111
					c-12.901-11.889-93.465-105.69-239.458-278.801c-4.377-5.194-4.209-12.828,0.393-17.821l26.912-29.209
					c4.598-4.992,12.194-5.787,17.729-1.847C587.75-331.173,687.823-258.541,700.707-246.66c14.93,13.749,23.61,32.5,24.441,52.786
					c0.829,20.286-6.292,39.686-20.049,54.615C690.753-123.688,670.375-114.756,649.189-114.756z M386.506-421.965
					c183.897,217.979,222.754,261.1,229.458,267.277c9.081,8.371,20.88,12.977,33.224,12.977c13.677,0,26.83-5.765,36.089-15.811
					c8.882-9.634,13.474-22.155,12.939-35.246c-0.535-13.092-6.137-25.191-15.774-34.07c-6.697-6.177-52.838-41.375-285.125-206.857
					L386.506-421.965z"/>
			</g>
		</g>
		<g>
			<path fill="#555E71" d="M65.71-544.686c-15.741,0-30.787-5.87-42.366-16.54c-25.359-23.378-26.98-63.025-3.615-88.383
				l123.14-133.649c11.808-12.815,28.58-20.164,46.01-20.164c15.743,0,30.791,5.879,42.371,16.552
				c12.284,11.319,19.427,26.745,20.108,43.438c0.682,16.692-5.179,32.648-16.5,44.937l-123.14,133.65
				C99.91-552.03,83.141-544.686,65.71-544.686z M188.879-776.466c-9.924,0-19.468,4.185-26.189,11.477L39.551-631.34
				c-13.295,14.425-12.373,36.988,2.059,50.29c6.587,6.068,15.147,9.411,24.101,9.411c10.068,0,19.369-4.072,26.187-11.468
				l123.139-133.649c6.444-6.993,9.778-16.074,9.39-25.572c-0.388-9.499-4.451-18.272-11.441-24.713
				C206.393-773.124,197.833-776.466,188.879-776.466z"/>
		</g>
		<g>
			<path fill="#555E71" d="M117.562-456.136c-15.741,0-30.787-5.878-42.369-16.548c-12.287-11.319-19.428-26.744-20.11-43.437
				c-0.683-16.692,5.173-32.653,16.495-44.937L235.36-738.812c11.806-12.814,28.574-20.167,46.004-20.167
				c15.738,0,30.784,5.879,42.371,16.548c12.286,11.324,19.431,26.753,20.113,43.441c0.682,16.693-5.177,32.649-16.498,44.938
				L163.57-476.3C151.762-463.48,134.992-456.136,117.562-456.136z M281.364-732.026c-10.066,0-19.365,4.082-26.18,11.479
				L91.399-542.791c-6.44,6.989-9.774,16.07-9.386,25.569c0.39,9.499,4.453,18.276,11.446,24.716
				c6.59,6.072,15.149,9.416,24.103,9.416c10.068,0,19.369-4.071,26.187-11.472l163.78-177.754
				c6.44-6.993,9.774-16.073,9.386-25.567c-0.389-9.502-4.453-18.277-11.444-24.717
				C298.877-728.678,290.316-732.026,281.364-732.026z"/>
		</g>
		<g>
			<path fill="#555E71" d="M280.217-347.042c-15.739,0-30.785-5.875-42.364-16.543c-12.289-11.319-19.434-26.753-20.118-43.441
				c-0.684-16.697,5.175-32.659,16.498-44.942l123.143-133.65c11.808-12.811,28.575-20.163,46.004-20.163
				c15.742,0,30.79,5.879,42.374,16.548c12.286,11.328,19.428,26.753,20.11,43.442c0.682,16.698-5.177,32.654-16.5,44.938
				L326.225-367.205C314.418-354.39,297.649-347.042,280.217-347.042z M403.38-578.827c-10.068,0-19.367,4.076-26.184,11.478
				L254.054-433.7c-6.442,6.993-9.777,16.075-9.389,25.568c0.391,9.502,4.455,18.277,11.451,24.722
				c6.589,6.071,15.149,9.415,24.101,9.415c10.068,0,19.369-4.076,26.187-11.473l123.141-133.65
				c6.442-6.993,9.776-16.074,9.388-25.567c-0.388-9.502-4.452-18.277-11.443-24.722
				C420.899-575.479,412.335-578.827,403.38-578.827z"/>
		</g>
		<g>
			<path fill="#555E71" d="M187.725-391.487c-15.739,0-30.785-5.875-42.364-16.548c-25.36-23.366-26.983-63.008-3.618-88.375
				l163.783-177.753c11.806-12.815,28.573-20.163,46.008-20.163c15.739,0,30.784,5.874,42.366,16.543
				c25.362,23.375,26.981,63.021,3.611,88.383L233.735-411.65C221.928-398.832,205.157-391.487,187.725-391.487z M351.534-667.372
				c-10.068,0-19.37,4.075-26.185,11.472L161.567-478.142c-13.296,14.429-12.372,36.992,2.06,50.285
				c6.589,6.072,15.146,9.415,24.098,9.415c10.071,0,19.372-4.071,26.189-11.472L377.69-607.667
				c13.297-14.429,12.376-36.992-2.056-50.294C369.047-664.028,360.486-667.372,351.534-667.372z"/>
		</g>
	</g>
	<g>
		<path fill="#555E71" d="M114.87-92.54c-50.849,0-92.217-41.37-92.217-92.217c0-19.882,12.475-52.404,38.14-99.42
			c20.617-37.773,41.906-70.37,42.8-71.739c2.489-3.808,6.73-6.098,11.277-6.098c4.546,0,8.786,2.29,11.277,6.098
			c8.285,12.652,80.943,124.989,80.943,171.159C207.09-133.91,165.719-92.54,114.87-92.54z M114.91-323.386
			c-8.09,13.069-19.472,31.995-30.458,52.123c-30.317,55.541-34.845,78.038-34.845,86.505c0,35.987,29.277,65.263,65.262,65.263
			c35.988,0,65.265-29.276,65.265-65.263C180.135-210.036,143.799-276.887,114.91-323.386z"/>
	</g>
</g>
<g>
	<g>
		<g>
			<path fill="#555E71" d="M1345.497,1501.593h-112.859c-3.994,0-7.797-1.705-10.454-4.689c-2.657-2.98-3.912-6.959-3.452-10.923
				c0.884-7.615,1.333-15.357,1.333-23.009c0-58.201-23.568-98.758-44.72-98.758c-21.151,0-44.719,40.557-44.719,98.758
				c0,7.155,0.387,14.359,1.153,21.445c0.237,1.021,0.362,2.083,0.362,3.176c0,7.733-6.268,14-13.999,14
				c-0.032-0.005-0.064-0.005-0.093,0h-112.855c-4.65,0-8.998-2.311-11.6-6.166c-48.627-71.986-75.406-167.979-75.406-270.286
				c0-113.71,60.159-208.954,110.627-268.833c52.325-62.088,118.059-112.598,146.531-112.598c28.472,0,94.206,50.51,146.531,112.598
				c50.466,59.879,110.625,155.123,110.625,268.833c0,102.308-26.779,198.3-75.404,270.286
				C1354.495,1499.282,1350.147,1501.593,1345.497,1501.593z M1247.812,1473.595h90.15c42.956-66.709,66.541-154.59,66.541-248.454
				c0-198.351-202.579-352.922-229.167-353.433c-26.569,0.511-229.151,155.082-229.151,353.433
				c0,93.864,23.584,181.745,66.543,248.454h90.147c-0.166-3.541-0.248-7.086-0.248-10.623c0-71.079,31.942-126.756,72.717-126.756
				c40.776,0,72.718,55.677,72.718,126.756C1248.063,1466.504,1247.979,1470.049,1247.812,1473.595z"/>
		</g>
		<g>
			<path fill="#555E71" d="M1297.72,975.393h-250.812c-7.731,0-13.999-6.267-13.999-13.999c0-7.733,6.268-13.999,13.999-13.999
				h250.812c7.731,0,13.999,6.266,13.999,13.999C1311.719,969.126,1305.451,975.393,1297.72,975.393z"/>
		</g>
		<g>
			<path fill="#555E71" d="M1372.393,1081.018H979.891c-7.731,0-13.999-6.266-13.999-13.999c0-7.732,6.268-13.999,13.999-13.999
				h392.501c7.73,0,13.999,6.267,13.999,13.999C1386.392,1074.752,1380.123,1081.018,1372.393,1081.018z"/>
		</g>
		<g>
			<path fill="#555E71" d="M1403.029,1186.647H941.604c-7.731,0-13.999-6.266-13.999-13.998c0-7.733,6.268-13.999,13.999-13.999
				h461.425c7.731,0,13.999,6.266,13.999,13.999C1417.028,1180.382,1410.76,1186.647,1403.029,1186.647z"/>
		</g>
		<g>
			<path fill="#555E71" d="M1404.938,1292.282H943.513c-7.73,0-13.999-6.266-13.999-13.998c0-7.733,6.269-14,13.999-14h461.425
				c7.731,0,13.999,6.267,13.999,14C1418.937,1286.017,1412.669,1292.282,1404.938,1292.282z"/>
		</g>
		<g>
			<path fill="#555E71" d="M1131.15,1397.903H958.831c-7.731,0-13.999-6.266-13.999-13.999s6.268-13.999,13.999-13.999h172.319
				c7.731,0,13.999,6.266,13.999,13.999S1138.881,1397.903,1131.15,1397.903z"/>
		</g>
		<g>
			<path fill="#555E71" d="M1391.543,1397.903H1219.22c-7.731,0-13.999-6.266-13.999-13.999s6.268-13.999,13.999-13.999h172.323
				c7.731,0,13.999,6.266,13.999,13.999S1399.274,1397.903,1391.543,1397.903z"/>
		</g>
	</g>
	<g>
		<path fill="#555E71" d="M877.332,1025.368c0,11.242-13.771,20.356-30.75,20.356c-16.984,0-30.748-9.114-30.748-20.356
			c0-11.256,13.764-20.369,30.748-20.369C863.561,1004.999,877.332,1014.112,877.332,1025.368z"/>
	</g>
	<g>
		<path fill="#555E71" d="M984.036,964.278c0,11.246-13.769,20.369-30.752,20.369c-16.984,0-30.746-9.123-30.746-20.369
			c0-11.252,13.762-20.365,30.746-20.365C970.267,943.913,984.036,953.026,984.036,964.278z"/>
	</g>
	<g>
		<path fill="#555E71" d="M896.59,1145.503c0,11.247-13.767,20.36-30.746,20.36c-16.984,0-30.752-9.113-30.752-20.36
			c0-11.251,13.769-20.365,30.752-20.365C882.823,1125.138,896.59,1134.252,896.59,1145.503z"/>
	</g>
	<g>
		<path fill="#555E71" d="M1532.724,1137.36c0,11.241-13.769,20.364-30.752,20.364c-16.981,0-30.75-9.123-30.75-20.364
			c0-11.247,13.769-20.365,30.75-20.365C1518.955,1116.995,1532.724,1126.113,1532.724,1137.36z"/>
	</g>
	<g>
		<path fill="#555E71" d="M1476.715,1027.4c0,11.247-13.769,20.36-30.755,20.36c-16.977,0-30.744-9.113-30.744-20.36
			c0-11.246,13.767-20.364,30.744-20.364C1462.946,1007.036,1476.715,1016.154,1476.715,1027.4z"/>
	</g>
</g>
<g>
	<g>
		<g>
			<g>
				<path fill="#555E71" d="M481.135,1993.459c-2.681,0-5.385-0.787-7.746-2.415l-22.862-15.762
					c-5.745-3.961-7.581-11.617-4.255-17.754c88.84-163.843,138.038-252.945,146.236-264.83
					c13.072-18.959,33.405-30.278,54.391-30.278c10.862,0,21.187,3.161,29.856,9.142c12.97,8.941,21.035,23.098,22.711,39.86
					c1.587,15.917-2.854,32.395-12.507,46.392c-8.181,11.885-73.945,89.569-195.46,230.893
					C488.817,1991.827,484.998,1993.459,481.135,1993.459z M476.142,1959.761l2.646,1.827
					c151.536-176.311,181.455-213.138,185.679-219.274c5.989-8.688,8.763-18.691,7.816-28.18
					c-0.863-8.639-4.784-15.771-11.036-20.084c-4.148-2.863-8.977-4.312-14.348-4.312c-11.822,0-24.045,7.078-31.901,18.47
					C610.764,1714.343,587.008,1755.377,476.142,1959.761z"/>
			</g>
		</g>
		<g>
			<path fill="#555E71" d="M382.913,2255.461c-9.737,0-19.137-2.925-27.175-8.466l-104.584-72.091
				c-10.551-7.27-17.636-18.212-19.95-30.812c-2.314-12.602,0.418-25.349,7.694-35.895c8.944-12.979,23.71-20.733,39.498-20.733
				c9.742,0,19.146,2.935,27.189,8.479l104.575,72.086c21.769,14.993,27.282,44.912,12.28,66.689
				C413.472,2247.712,398.702,2255.461,382.913,2255.461z M278.396,2114.782c-6.803,0-13.161,3.335-17.007,8.92
				c-3.139,4.544-4.312,10.03-3.316,15.455c0.996,5.42,4.046,10.128,8.581,13.258l104.58,72.087c3.463,2.384,7.5,3.642,11.68,3.642
				c6.807,0,13.179-3.339,17.038-8.928c6.447-9.364,4.077-22.24-5.291-28.691l-104.58-72.092
				C286.612,2116.046,282.575,2114.782,278.396,2114.782z"/>
		</g>
		<g>
			<path fill="#555E71" d="M439.104,2210.888c-9.746,0-19.15-2.935-27.193-8.488l-139.086-95.864
				c-21.76-15.006-27.264-44.925-12.276-66.688c8.963-13.001,23.738-20.756,39.527-20.756c9.742,0,19.136,2.931,27.18,8.471
				l139.095,95.892c10.542,7.265,17.625,18.202,19.941,30.799c2.321,12.604-0.409,25.348-7.683,35.895
				C469.663,2203.129,454.893,2210.888,439.104,2210.888z M300.076,2046.409c-6.807,0-13.174,3.343-17.034,8.937
				c-6.447,9.364-4.077,22.24,5.287,28.7l139.091,95.869c3.468,2.393,7.505,3.655,11.685,3.655c6.803,0,13.161-3.339,17.011-8.933
				c3.134-4.539,4.308-10.021,3.312-15.441c-1-5.42-4.046-10.124-8.582-13.25l-139.095-95.892
				C308.292,2047.671,304.255,2046.409,300.076,2046.409z"/>
		</g>
		<g>
			<path fill="#555E71" d="M498.626,2087.616c-9.746,0-19.146-2.935-27.188-8.479l-104.584-72.092
				c-10.551-7.27-17.634-18.211-19.95-30.808c-2.317-12.601,0.413-25.343,7.688-35.89c8.946-12.987,23.716-20.742,39.504-20.742
				c9.746,0,19.15,2.936,27.193,8.488l104.58,72.078c21.76,15.006,27.264,44.924,12.276,66.688
				C529.185,2079.857,514.415,2087.616,498.626,2087.616z M394.095,1946.925c-6.803,0-13.161,3.339-17.011,8.928
				c-3.135,4.544-4.308,10.026-3.312,15.446c0.996,5.42,4.046,10.128,8.582,13.259l104.588,72.091
				c3.463,2.388,7.505,3.65,11.685,3.65c6.803,0,13.165-3.344,17.024-8.937c6.447-9.364,4.077-22.24-5.287-28.701l-104.584-72.082
				C402.312,1948.188,398.275,1946.925,394.095,1946.925z"/>
		</g>
		<g>
			<path fill="#555E71" d="M476.946,2155.981c-9.737,0-19.141-2.93-27.184-8.47l-139.091-95.883
				c-10.546-7.27-17.634-18.208-19.95-30.804c-2.321-12.601,0.409-25.348,7.683-35.898c8.955-12.983,23.721-20.737,39.509-20.737
				c9.741,0,19.145,2.935,27.188,8.479l139.096,95.874c21.769,15.002,27.269,44.925,12.271,66.697
				C507.505,2148.231,492.73,2155.981,476.946,2155.981z M337.913,1991.507c-6.803,0-13.166,3.335-17.021,8.928
				c-3.13,4.54-4.304,10.026-3.308,15.446c1,5.42,4.05,10.129,8.59,13.255l139.087,95.882c3.459,2.384,7.505,3.646,11.685,3.646
				c6.807,0,13.174-3.339,17.033-8.933c6.447-9.363,4.082-22.24-5.287-28.7l-139.1-95.874
				C346.125,1992.77,342.088,1991.507,337.913,1991.507z"/>
		</g>
	</g>
	<g>
		<path fill="#555E71" d="M362.34,2309.122c-95.887,0-186.999-41.193-256.556-115.992C38.558,2120.839,0,2024.115,0,1927.766
			c0-7.545,6.116-13.659,13.659-13.659h305.887c7.545,0,13.659,6.114,13.659,13.659c0,7.546-6.113,13.659-13.659,13.659H27.578
			c7.061,185.883,157.485,340.38,334.763,340.38c177.275,0,327.7-154.497,334.76-340.38H595.322
			c-7.545,0-13.659-6.113-13.659-13.659c0-7.545,6.114-13.659,13.659-13.659h115.695c7.545,0,13.659,6.114,13.659,13.659
			c0,96.35-38.558,193.073-105.785,265.364C549.335,2267.929,458.223,2309.122,362.34,2309.122z"/>
	</g>
	<g>
		<path fill="#555E71" d="M195.927,2101.502H49.326c-7.543,0-13.659-6.113-13.659-13.659c0-7.545,6.116-13.658,13.659-13.658
			h146.601c7.543,0,13.659,6.113,13.659,13.658C209.586,2095.389,203.47,2101.502,195.927,2101.502z"/>
	</g>
	<g>
		<path fill="#555E71" d="M666.64,2101.502H568.36c-7.545,0-13.659-6.113-13.659-13.659c0-7.545,6.114-13.658,13.659-13.658h98.279
			c7.545,0,13.659,6.113,13.659,13.658C680.299,2095.389,674.185,2101.502,666.64,2101.502z"/>
	</g>
</g>
<g>
	<g>
		<path fill="#555E71" d="M1281.956-85.04h-214.896c-2.223,0-4.412-0.544-6.375-1.584
			c-101.479-53.873-167.05-174.567-167.05-307.483c0-56.045,11.738-111.534,33.941-160.459c3.102-6.837,11.163-9.869,17.998-6.762
			c6.837,3.106,9.864,11.16,6.762,17.998c-20.615,45.425-31.512,97.023-31.512,149.223c0,121.676,58.641,231.887,149.673,281.879
			h208.023c91.029-49.992,149.67-160.203,149.67-281.879c0-49.536-9.861-98.798-28.523-142.448
			c-2.949-6.904,0.254-14.896,7.158-17.848c6.912-2.951,14.893,0.253,17.845,7.156c20.376,47.678,30.708,99.201,30.708,153.14
			c0,132.916-65.571,253.61-167.048,307.483C1286.368-85.584,1284.177-85.04,1281.956-85.04z"/>
	</g>
	<g>
		<path fill="#555E71" d="M1363.267-524.404c-38.409,0-73.479-20.117-93.448-51.448c-19.968,31.331-55.036,51.448-93.438,51.448
			c-38.409,0-73.481-20.117-93.45-51.448c-19.969,31.331-55.036,51.448-93.443,51.448c-61.082,0-110.777-49.695-110.777-110.777
			c0-5.093,2.846-9.758,7.371-12.085l118.799-61.179l-14.406-86.438c-0.657-3.938,0.454-7.969,3.036-11.019
			c2.582-3.049,6.376-4.806,10.373-4.806h352.806c3.996,0,7.791,1.757,10.374,4.806c2.582,3.049,3.692,7.08,3.035,11.019
			l-14.718,88.319l109.786,87.19c4.295,3.412,6.118,9.067,4.626,14.342C1456.372-557.558,1412.568-524.404,1363.267-524.404z
			 M1269.819-622.326L1269.819-622.326c6.085,0,11.429,4.044,13.082,9.899c10.123,35.818,43.17,60.834,80.366,60.834
			c34.21,0,64.914-21.17,77.498-52.439L1332.2-690.253c-3.87-3.071-5.769-8.005-4.954-12.877l13.396-80.389H1019.93l13.397,80.389
			c0.971,5.824-1.932,11.612-7.184,14.32l-119.855,61.719c4.081,42.31,39.836,75.499,83.199,75.499
			c37.191,0,70.237-25.016,80.362-60.834c1.652-5.854,6.999-9.899,13.081-9.899l0,0c6.085,0,11.429,4.044,13.081,9.899
			c10.123,35.818,43.171,60.834,80.369,60.834c37.189,0,70.233-25.016,80.358-60.834
			C1258.391-618.281,1263.734-622.326,1269.819-622.326z"/>
	</g>
	<g>
		<path fill="#555E71" d="M1330.31-687.306h-311.608c-7.507,0-13.594-6.085-13.594-13.594c0-7.505,6.087-13.594,13.594-13.594
			h311.608c7.507,0,13.594,6.089,13.594,13.594C1343.904-693.391,1337.817-687.306,1330.31-687.306z"/>
	</g>
	<g>
		<path fill="#555E71" d="M1293.89-273.914h-238.768c-7.508,0-13.595-6.084-13.595-13.594v-135.421
			c0-7.51,6.087-13.595,13.595-13.595h238.768c7.507,0,13.595,6.085,13.595,13.595v135.421
			C1307.485-279.998,1301.397-273.914,1293.89-273.914z M1068.716-301.102h211.579v-108.232h-211.579V-301.102z"/>
	</g>
</g>
<g>
	<g>
		<g>
			<path fill="#555E71" d="M283.524,272.366h-0.004c-28.797,0-52.325-12.586-62.934-33.656c-6.756-13.425-7.509-29.313-2.117-44.729
				c7.544-21.577,25.894-40.408,50.344-51.665c14.296-6.59,29.742-10.076,44.659-10.076c28.797,0,52.325,12.586,62.93,33.66
				c6.757,13.421,7.509,29.305,2.121,44.724c-7.548,21.578-25.898,40.413-50.353,51.673
				C313.874,268.885,298.433,272.366,283.524,272.366z M313.472,159.11c-11.064,0-22.618,2.633-33.415,7.609
				c-17.611,8.108-31.15,21.612-36.227,36.131c-2.095,5.996-3.669,14.987,0.756,23.772c5.947,11.816,20.506,18.875,38.938,18.875
				l0,0c11.056,0,22.609-2.628,33.407-7.601c17.606-8.107,31.15-21.621,36.227-36.14c2.095-6,3.669-14.991-0.756-23.772
				C346.454,166.168,331.905,159.11,313.472,159.11z"/>
		</g>
		<g>
			<path fill="#555E71" d="M394.86,196.877c-10.229,0-19.679-0.367-28.08-1.093c-6.004-0.516-10.929-4.968-12.048-10.889
				c-0.455-2.414-1.242-4.741-2.335-6.918c-2.082-4.141-5.266-7.731-9.459-10.675c-3.358-2.357-5.458-6.114-5.698-10.211
				c-0.24-4.093,1.404-8.073,4.461-10.801c31.373-28.041,117.288-78.131,176.807-78.131c36.599,0,51.472,18.761,57.507,34.504
				c5.882,15.35,4.308,30.275-4.557,43.167C543.749,186.128,447.417,196.877,394.86,196.877z M378.094,169.619
				c5.239,0.258,10.85,0.389,16.767,0.389c61.745,0,136.858-13.811,154.456-39.402c3.835-5.576,4.33-11.23,1.609-18.332
				c-2.842-7.404-9.289-17.248-32.418-17.248c-42.665,0-111.069,34.513-147.638,62.107c2.125,2.738,3.971,5.663,5.532,8.764
				C377.014,167.122,377.578,168.36,378.094,169.619z"/>
		</g>
		<g>
			<path fill="#555E71" d="M347.578,169.956c-2.584,0-5.178-0.744-7.448-2.257c-12.726-8.484-34.163-9.608-53.251-2.589
				c-4.776,1.75-10.115,0.665-13.824-2.812s-5.134-8.742-3.695-13.613C284.543,97.418,328.424,0.47,385.852,0.47
				c9.153,0,18.087,2.51,26.554,7.461c14.024,8.204,22.181,20.453,23.593,35.422c4.237,44.886-54.245,101.173-79.583,123.288
				C353.902,168.836,350.749,169.956,347.578,169.956z M312.658,133.497c12.048,0,23.287,2.296,33.053,6.7
				c40.771-37.098,65.497-73.592,63.542-94.32c-0.407-4.268-1.95-9.8-10.412-14.751c-4.356-2.549-8.606-3.787-12.988-3.787
				c-28.579,0-62.943,51.927-83.283,106.688C305.933,133.676,309.3,133.497,312.658,133.497z"/>
		</g>
		<g>
			<path fill="#555E71" d="M496.012,306.271c-47.794,0-114.406-32.261-156.065-62.234c-3.245-2.335-5.283-5.996-5.558-9.984
				s1.242-7.894,4.137-10.648c11.799-11.239,17.965-24.997,16.491-36.805c-0.45-3.582,0.564-7.198,2.816-10.023
				c2.248-2.825,5.537-4.631,9.131-5.003c12.708-1.312,26.134-1.977,39.905-1.977c32.353,0,110.89,4.128,141.371,42.367
				c10.977,13.767,14.571,30.7,10.399,48.949C551.949,290.165,529.707,306.271,496.012,306.271z M367.883,230.603
				c39.035,25.421,92.081,48.8,128.129,48.8c27.332,0,33.826-13.08,36.433-24.481c2.388-10.426,0.73-18.756-5.213-26.212
				c-15.857-19.89-61.976-32.244-120.362-32.244c-8.458,0-16.994,0.28-25.193,0.827
				C380.285,208.724,375.558,220.133,367.883,230.603z"/>
		</g>
		<g>
			<path fill="#555E71" d="M373.878,425.156c-70.919,0-97.128-108.157-101.081-165.349c-0.25-3.643,0.993-7.233,3.437-9.936
				c2.449-2.711,5.895-4.303,9.542-4.417c10.355-0.328,21.131-2.939,31.154-7.557c9.651-4.443,18.236-10.592,24.826-17.781
				c4.662-5.09,12.42-5.812,17.948-1.679c44.812,33.516,95.912,90.271,92.444,139.897c-1.137,16.233-8.864,39.096-39.249,55.797
				C399.597,421.447,386.469,425.156,373.878,425.156z M300.807,270.844c6.612,56.751,31.727,127.443,73.071,127.443
				c8.011,0,16.784-2.589,26.077-7.701c16.098-8.847,24.402-20.016,25.391-34.128c2.344-33.542-34.604-78.642-72.809-109.556
				c-7.22,6.075-15.477,11.305-24.367,15.398C319.384,266.349,310.113,269.235,300.807,270.844z"/>
		</g>
		<g>
			<path fill="#555E71" d="M86.365,371.943c-17.956,0-32.558-8.046-42.231-23.265c-9.678-15.231-10.741-32.038-3.074-48.603
				c23.986-51.813,135.1-93.668,185.465-100.652c3.962-0.547,7.92,0.682,10.867,3.35c2.948,2.672,4.557,6.512,4.404,10.487
				c-0.192,4.811,0.748,9.306,2.794,13.373c1.089,2.165,2.497,4.207,4.172,6.057c4.185,4.613,4.645,11.501,1.115,16.635
				C220.472,292.081,142.324,371.943,86.365,371.943z M216.703,228.495c-50.37,11.012-134.693,47.082-151.258,82.872
				c-3.844,8.3-3.42,15.367,1.369,22.907c4.745,7.469,10.775,10.802,19.552,10.802c37.526,0,102.572-58.684,135.883-103.32
				c-0.586-0.997-1.142-2.012-1.658-3.044C218.933,235.422,217.639,232.011,216.703,228.495z"/>
		</g>
		<g>
			<path fill="#555E71" d="M163.766,230.174c-45.585,0-76.561-8.965-92.063-26.659C62.89,193.457,59.226,180.64,61.11,166.44
				c2.436-18.367,15.953-49.176,79.075-49.176c44.602,0,97.403,14.729,131.942,28.513c4.797,1.915,8.073,6.415,8.423,11.571
				c0.35,5.156-2.292,10.054-6.792,12.599c-18.358,10.382-30.896,27.03-31.937,42.411c-0.424,6.275-5.143,11.414-11.357,12.372
				C207.331,228.293,184.267,230.174,163.766,230.174z M140.186,144.132c-32.523,0-50.165,8.694-52.443,25.841
				c-0.87,6.569,0.455,11.598,4.168,15.84c9.743,11.116,35.934,17.493,71.855,17.493c16.347,0,34.513-1.29,53.038-3.757
				c3.416-13.316,11.261-26.199,22.417-37.08C209.614,152.831,172.005,144.132,140.186,144.132z"/>
		</g>
		<g>
			<path fill="#555E71" d="M223.083,156.989c-3.717,0-7.417-1.535-10.071-4.543c-25.679-29.068-37.014-54.778-33.695-76.408
				c1.504-9.827,6.993-23.764,24.564-34.369c13.872-8.375,28.325-10.657,42.983-6.809c28.456,7.487,50.3,37.198,63.616,60.804
				c3.643,6.464,1.36,14.659-5.104,18.302c-6.463,3.643-14.654,1.36-18.301-5.104c-15.219-26.991-31.929-44.042-47.046-48.017
				c-7.465-1.959-14.751-0.708-22.268,3.827c-9.402,5.676-11.287,11.532-11.886,15.441c-1.968,12.813,7.972,32.698,27.271,54.551
				c4.915,5.558,4.386,14.046-1.172,18.962C229.416,155.883,226.245,156.989,223.083,156.989z"/>
		</g>
		<g>
			<path fill="#555E71" d="M211.197,440.575c-8.912,0-18.1-2.204-27.31-6.542c-19.238-9.07-31.102-24.157-34.308-43.635
				c-8.707-52.92,47.3-123.223,81.765-156.419c5.221-5.038,13.491-5.012,18.695,0.052c8.843,8.615,24.472,12.822,41.2,11.038
				c3.875-0.433,7.706,0.866,10.552,3.499c2.847,2.632,4.417,6.372,4.303,10.25C304.035,329.086,276.453,440.575,211.197,440.575z
				 M241.844,261.464c-37.075,38.427-71.042,92.413-65.75,124.569c1.78,10.815,7.898,18.341,19.25,23.694
				c5.598,2.642,10.929,3.979,15.853,3.979c36.538,0,62.27-78.253,67.264-141.489C264.672,271.492,252.13,267.783,241.844,261.464z"
				/>
		</g>
	</g>
	<g>
		<path fill="#555E71" d="M351.501,725.67c-2.703,0-5.436-0.813-7.806-2.51c-6.031-4.316-7.426-12.708-3.105-18.743
			c87.585-122.409,75.848-224.824,50.58-289.188c-2.716-6.91,0.687-14.703,7.592-17.414c6.914-2.712,14.707,0.687,17.414,7.591
			c27.708,70.561,40.872,182.426-53.737,314.648C359.818,723.719,355.69,725.67,351.501,725.67z"/>
	</g>
	<g>
		<path fill="#555E71" d="M572.73,573.183h-0.004c-1.321,0-2.698-0.162-4.093-0.486c-57.529-13.15-134.873-23.588-135.646-23.693
			c-3.783-0.507-7.172-2.598-9.319-5.755c-2.147-3.153-2.855-7.071-1.941-10.775c14.304-58.023,34.041-79.242,39.057-83.877
			c20.033-22.255,40.495-34.093,60.826-35.178c2.61-0.14,5.296,0.507,7.583,1.863c6.477,3.853,10.666,9.822,11.799,16.802
			c0.101,0.621,0.175,1.242,0.227,1.863l25.819-5.396c10.15-2.125,24.043-3.297,39.113-3.297c14.125,0,61.403,1.203,76.731,16.697
			c4.417,4.469,6.109,10.46,4.64,16.443c-1.041,4.259-3.857,15.735-47.982,33.419c21.643,12.162,19.259,21.883,18.061,26.768
			c-2.75,11.2-8.786,22.649-32.685,22.649c-7.95,0-18.35-1.164-31.797-3.56c-6.407-1.137-12.8-2.23-18.201-2.965
			c13.447,16.045,14.379,23.252,11.335,29.956C583.868,569.916,578.686,573.183,572.73,573.183z M451.707,524.518
			c20.519,2.996,58.789,8.882,95.309,16.132c-4.076-8.073-6.923-16.635-2.274-24.538c5.423-9.206,16.29-9.206,19.858-9.206
			c7.491,0,18.267,1.649,33.227,4.312c11.467,2.038,20.445,3.096,26.694,3.14c-6.914-3.507-16.972-7.653-26.471-10.736
			c-5.545-1.802-9.293-6.971-9.284-12.8c0.009-5.829,3.778-10.985,9.328-12.77c20.729-6.656,41.615-15.118,53.903-21.516
			c-9.861-2.322-25.43-4.417-45.848-4.417c-13.277,0-25.211,0.966-33.612,2.729l-49.001,10.238
			c-5.611,1.172-11.401-1.369-14.322-6.337c-2.874-4.876-2.375-11.02,1.215-15.367c-9.568,4.093-19.779,12.096-30.118,23.681
			c-0.459,0.512-0.953,0.988-1.487,1.426l0,0C478.838,468.489,464.341,481.893,451.707,524.518z"/>
	</g>
</g>
<g>
	<g>
		<g>
			<g>
				<path fill="#555E71" d="M1793.183,2343.901c-2.517,0-5.033-0.653-7.29-1.957l-157.201-90.923
					c-4.503-2.603-7.276-7.413-7.271-12.612l0.133-181.6c0.005-5.204,2.782-10.006,7.29-12.607l157.339-90.686
					c6.968-4.016,15.87-1.621,19.89,5.347c4.015,6.968,1.621,15.869-5.347,19.889l-150.055,86.485l-0.123,164.786l142.65,82.505
					l142.769-82.296l0.015-18.064c0.004-8.039,6.521-14.552,14.561-14.552h0.01c8.044,0.005,14.557,6.531,14.552,14.57
					l-0.019,26.474c-0.005,5.204-2.783,10.006-7.291,12.608l-157.339,90.689C1798.203,2343.253,1795.695,2343.901,1793.183,2343.901
					z"/>
			</g>
			<g>
				<path fill="#555E71" d="M2176.705,2343.901c-2.517,0-5.034-0.653-7.29-1.957l-157.202-90.923
					c-4.503-2.603-7.275-7.413-7.271-12.617l0.023-26.354c0.01-8.034,6.526-14.547,14.562-14.547h0.014
					c8.039,0.009,14.557,6.531,14.547,14.575l-0.014,17.945l142.645,82.505l142.77-82.291l0.123-164.786l-149.926-86.714
					c-6.963-4.023-9.343-12.93-5.314-19.894c4.025-6.958,12.936-9.337,19.895-5.313l157.201,90.923
					c4.504,2.603,7.276,7.413,7.271,12.613l-0.133,181.599c-0.005,5.204-2.782,10.006-7.29,12.607l-157.339,90.686
					C2181.725,2343.253,2179.217,2343.901,2176.705,2343.901z"/>
			</g>
			<g>
				<path fill="#555E71" d="M2142.283,1926.053c0,0-0.005,0-0.01,0c-8.043-0.005-14.557-6.532-14.552-14.571l0.133-173.185
					l-142.654-82.504l-142.764,82.291l-0.133,173.189c-0.005,8.039-6.522,14.552-14.562,14.552c-0.005,0-0.01,0-0.01,0
					c-8.043-0.005-14.557-6.531-14.552-14.57l0.138-181.599c0.005-5.205,2.782-10.007,7.29-12.608l157.335-90.686
					c4.508-2.588,10.053-2.593,14.561,0.014l157.207,90.923c4.503,2.603,7.275,7.413,7.271,12.613l-0.138,181.589
					C2156.84,1919.54,2150.322,1926.053,2142.283,1926.053z"/>
			</g>
		</g>
	</g>
	<g>
		<g>
			<path fill="#555E71" d="M1983.845,2179.6c-3.039,0-6.082-0.948-8.651-2.849c-2.394-1.768-58.894-44.011-78.39-102.943
				c-2.521-7.636,1.621-15.874,9.253-18.4c7.674-2.531,15.874,1.626,18.4,9.252c12.419,37.561,44.001,68.299,59.373,81.585
				c15.017-13.002,45.552-42.712,58.501-78.949c2.706-7.574,11.03-11.514,18.614-8.812c7.574,2.707,11.518,11.039,8.812,18.614
				c-20.458,57.23-74.954,97.952-77.262,99.653C1989.921,2178.651,1986.883,2179.6,1983.845,2179.6z"/>
		</g>
		<g>
			<path fill="#555E71" d="M1926.656,1912.15c-0.332,0-0.663-0.01-0.995-0.033c-8.024-0.54-14.087-7.489-13.547-15.509
				c2.801-41.456,33.317-73.926,69.469-73.926c34.583,0.005,64.251,29.691,69.01,69.048c0.962,7.987-4.726,15.239-12.708,16.206
				c-7.963,0.948-15.239-4.726-16.206-12.708c-2.991-24.752-20.229-43.418-40.101-43.423c-20.884,0-38.635,20.543-40.408,46.765
				C1940.648,1906.259,1934.25,1912.15,1926.656,1912.15z"/>
		</g>
		<g>
			<path fill="#555E71" d="M1846.916,2149.852c-0.005,0-0.01,0-0.02,0c-15.633-0.005-31.582-7.134-47.404-21.183
				c-31-27.53-39.83-61.962-25.544-99.564c13.177-34.678,45.665-71.887,96.559-110.598c13.215-10.054,68.819-49.381,79.864-49.381
				c1.563,0,3.113,0.251,4.598,0.744l2.266,0.753c6.498,2.161,10.612,8.565,9.878,15.377c-0.28,2.606-7.067,64.544-23.752,127.601
				C1919.096,2105.281,1887.547,2149.852,1846.916,2149.852z M1934.842,1909.315c-42.579,26.568-129.813,89.486-137.848,145.879
				c-2.754,19.296,4.394,36.203,21.837,51.698c10.333,9.177,19.78,13.837,28.075,13.837
				C1888.215,2120.743,1921.295,2004.685,1934.842,1909.315z"/>
		</g>
		<g>
			<path fill="#555E71" d="M2118.649,2149.852c-40.641,0-72.189-44.57-96.449-136.261c-16.685-63.056-23.473-124.984-23.752-127.591
				c-0.734-6.807,3.375-13.206,9.873-15.372l2.262-0.754c1.483-0.497,3.038-0.748,4.603-0.748c11.044,0,66.648,39.327,79.863,49.381
				c50.894,38.711,83.382,75.92,96.559,110.598c14.287,37.603,5.456,72.034-25.544,99.564
				C2150.232,2142.728,2134.282,2149.852,2118.649,2149.852z M2030.718,1909.315c13.542,95.364,46.623,211.414,87.932,211.414
				c8.29,0,17.737-4.655,28.075-13.837c17.443-15.495,24.591-32.402,21.837-51.698
				C2160.527,1998.807,2073.303,1935.888,2030.718,1909.315z"/>
		</g>
		<g>
			<path fill="#555E71" d="M1981.835,1957.058c-30.915,0-40.632-9.693-43.675-15.477c-3.744-7.115-1.01-15.922,6.11-19.666
				c6.067-3.199,13.371-1.678,17.713,3.266c1.441,0.701,6.792,2.754,19.852,2.754c15.059,0,20.87-2.73,22.069-3.398
				c5-5.049,13.077-5.793,18.965-1.455c6.475,4.768,7.858,13.888,3.085,20.357
				C2022.205,1948.525,2011.492,1957.058,1981.835,1957.058z"/>
		</g>
		<g>
			<path fill="#555E71" d="M2028.002,2022.507h-88.297c-8.043,0-14.561-6.518-14.561-14.562s6.518-14.562,14.561-14.562h88.297
				c8.044,0,14.562,6.518,14.562,14.562S2036.046,2022.507,2028.002,2022.507z"/>
		</g>
		<g>
			<path fill="#555E71" d="M2043.796,2085.946h-116.613c-8.044,0-14.562-6.517-14.562-14.561s6.518-14.562,14.562-14.562h116.613
				c8.044,0,14.562,6.518,14.562,14.562S2051.84,2085.946,2043.796,2085.946z"/>
		</g>
	</g>
</g>
<g>
	<g>
		<path fill="#555E71" d="M1885.278,1476.945c-2.67,0-5.304-0.771-7.571-2.255c-4.667-3.044-114.57-76.163-134.642-209.406
			c-0.879-5.845,2.043-11.603,7.278-14.34c2.029-1.06,203.64-106.863,289.295-182.017
			c75.916-66.617,174.099-146.027,210.724-146.027c10.8,0,16.5,5.564,18.935,8.883c11.27,15.351-1.182,35.913-27.02,65.161
			c28.72-21.925,48.75-34.646,63.298-34.646c6.453,0,12.157,2.476,16.062,6.967c17.929,20.648-2.499,50.563-38.866,87.293
			c12.008-4.866,23.507-8.136,33.104-8.136c16.774,0,24.003,9.425,26.816,15.044c2.098,4.185,3.933,11.012,0.771,19.742
			c-5.727,15.841-29.226,33.847-54.145,49.215c20.92,0.677,32.414,7.473,34.19,20.229c3.607,25.965-34.015,42.56-112.617,74.685
			c-40.959,16.738-83.311,34.05-109.898,51.474c-69.224,45.36-162.567,124.653-203.932,191.563
			c-1.962,3.179-5.123,5.425-8.767,6.236C1887.294,1476.837,1886.283,1476.945,1885.278,1476.945z M1772.11,1270.776
			c17.569,91.729,83.181,151.614,109.61,172.479c46.681-67.551,136.598-143.394,204.085-187.617
			c28.819-18.886,72.43-36.707,114.602-53.946c30.032-12.274,72.862-29.779,89.435-41.531c-1.204-0.05-2.548-0.086-4.054-0.086
			c-26.146,0-66.96,9.146-67.37,9.235c-6.958,1.597-13.984-2.408-16.211-9.19c-2.229-6.786,1.068-14.15,7.611-17.014
			c37.974-16.607,97.466-51.227,106.588-66.969c-0.166,0-0.342-0.009-0.531-0.009c-16.586,0-51.281,19.692-72.011,31.457
			c-19.706,11.184-25.672,14.403-31.999,14.403c-4.067,0-7.832-1.537-10.605-4.338c-2.647-2.679-4.23-6.701-4.14-10.462
			c0.198-8.261,5.177-12.852,29.099-34.938c17.037-15.725,65.49-60.462,73.084-80.285c-15.535,7.188-47.335,32.368-65.625,46.853
			c-37.189,29.446-51.218,39.755-62.617,39.759h-0.01c-4.104,0-7.851-1.339-10.836-3.864c-3.408-2.882-5.429-6.98-5.682-11.535
			c-0.636-11.525,9.38-23.115,40.525-55.983c14.074-14.85,38.001-40.098,47.038-54.632c-25.433,9.38-88.063,52.841-184.186,137.189
			C1979.24,1158.776,1812.934,1249.036,1772.11,1270.776z"/>
	</g>
	<g>
		<path fill="#555E71" d="M1992.755,1216.745c-5.208,0-10.2-2.954-12.554-7.978c-3.243-6.931-0.258-15.179,6.669-18.425
			c0.581-0.271,58.419-27.48,89.619-52.057c13.068-10.29,40.26-31.71,39.597-38.763v0.005c0,0-0.031-0.091-0.14-0.267
			c-10.619-3.463-52.25,10.047-72.466,16.604c-13.136,4.257-24.477,7.937-32.868,9.817c-7.486,1.664-14.877-3.025-16.545-10.493
			c-1.669-7.468,3.025-14.872,10.493-16.545c7.125-1.592,18.416-5.254,30.37-9.132c51.601-16.738,86.535-26.416,101.471-9.06
			c5.511,6.408,8.022,13.975,7.255,21.875c-1.925,19.842-24.215,37.392-50.022,57.725c-33.721,26.565-92.527,54.217-95.013,55.38
			C1996.719,1216.325,1994.721,1216.745,1992.755,1216.745z"/>
	</g>
	<g>
		<path fill="#555E71" d="M1841.961,1511.974c-0.221,0-0.441-0.004-0.667-0.018c-5.506-0.262-135.778-7.711-217.023-113.952
			c-3.526-4.608-3.806-10.926-0.699-15.828c1.245-1.966,124.969-197.849,163.101-307.494
			c50.803-146.082,89.633-225.808,115.408-236.964c7.594-3.292,13.794-1.93,17.649-0.207c19.995,8.919,15.404,38.221,2.62,88.6
			c26.61-59.735,42.699-90.26,65.382-84.577c0.226,0.054,0.446,0.117,0.667,0.18c7.31,2.232,13.032,7.192,16.541,14.349
			c8.775,17.88,2.281,49.648-9.907,86.888c16.04-20.482,26.988-30.046,37.631-31.431c5.483-0.722,10.723,0.803,14.804,4.266
			c14.881,12.645,12.054,35.863-3.224,69.783c18.664-12.433,33.009-14.904,42.889-7.311c6.065,4.668,7.196,13.366,2.534,19.427
			c-4.158,5.407-11.521,6.891-17.37,3.851c-11.323,2.31-45.586,33.334-74.928,68.047c-4.646,5.502-12.748,6.529-18.615,2.345
			c-5.871-4.185-7.553-12.166-3.873-18.362c1.542-2.597,3.413-5.682,5.523-9.162c35.791-59.096,46.758-86.518,48.968-99.207
			c-12.009,12.473-30.569,39.164-40.58,53.554c-22.29,32.053-26.926,38.727-38.709,35.502c-3.77-1.032-7.205-3.855-8.974-7.346
			c-3.751-7.413-1.65-12.95,10.002-43.669c7.635-20.125,18.092-47.682,24.478-71.699c5.934-22.303,6.218-33.631,5.532-39.078
			c-10.967,13.925-28.765,54.239-38.942,77.291c-23.725,53.743-31.269,69.146-46.447,68.276c-5.086-0.302-9.73-2.858-12.738-7.008
			c-7.702-10.619-4.045-28.196,8.374-75.73c4.685-17.934,12.495-47.821,14.128-64.683c-14.963,19.44-45.843,78.576-92.65,213.177
			c-35.069,100.83-136.079,265.521-160.615,304.856c58.789,70.757,144.188,89.453,176.948,94.152
			c0.248-2.634,0.532-5.309,0.848-8.022c0.884-7.599,7.766-13.023,15.364-12.153c7.598,0.884,13.041,7.766,12.152,15.363
			c-0.853,7.311-1.438,14.309-1.74,20.793c-0.176,3.676-1.8,7.125-4.519,9.601
			C1848.725,1510.693,1845.397,1511.974,1841.961,1511.974z"/>
	</g>
</g>
<g>
	<g>
		<path fill="#555E71" d="M2662.762,1538.196c-88.68,0-160.828-72.145-160.828-160.824c0-34.717,23.517-95.391,69.891-180.339
			c38.334-70.231,79.148-132.725,79.555-133.345c2.516-3.838,6.792-6.153,11.383-6.153c4.586,0,8.867,2.311,11.382,6.149
			c6.101,9.323,149.45,229.285,149.45,313.688C2823.594,1466.052,2751.445,1538.196,2662.762,1538.196z M2662.793,1096.334
			c-14.689,23.296-41.456,66.761-67.089,113.733c-55.021,100.774-66.571,146.604-66.571,167.305
			c0,73.681,59.948,133.624,133.629,133.624c73.689,0,133.633-59.943,133.633-133.624
			C2796.395,1319.333,2708.547,1168.599,2662.793,1096.334z"/>
	</g>
	<g>
		<path fill="#555E71" d="M2939.098,1324.105h-88.449c-7.513,0-13.6-6.088-13.6-13.601s6.087-13.6,13.6-13.6h80.596l132.504-229.493
			L2931.244,837.91h-265.008l-132.499,229.502l36.156,62.621c3.755,6.504,1.523,14.822-4.98,18.576
			c-6.503,3.772-14.821,1.532-18.58-4.976l-40.074-69.422c-2.431-4.21-2.431-9.395,0-13.6l140.349-243.103
			c2.435-4.206,6.924-6.8,11.78-6.8h280.71c4.856,0,9.346,2.594,11.776,6.8l140.357,243.103c2.426,4.21,2.426,9.394,0,13.6
			l-140.357,243.094C2948.443,1321.516,2943.954,1324.105,2939.098,1324.105z"/>
	</g>
	<g>
		<path fill="#555E71" d="M2676.189,1477.394c-6.836,0-12.725-5.144-13.499-12.099c-0.827-7.464,4.547-14.188,12.011-15.017
			c51.567-5.729,49.266-69.572,49.142-72.286c-0.346-7.504,5.463-13.866,12.967-14.207c7.469-0.336,13.861,5.468,14.206,12.968
			c1.443,31.804-12.015,93.748-73.304,100.557C2677.198,1477.368,2676.693,1477.394,2676.189,1477.394z"/>
	</g>
</g>
<g>
	<g>
		<g>
			<path fill="#555E71" d="M2796.915,727.006l-1.587-0.018l-1.578,0.018c-60.872,0-164.667-10.766-172.808-50.832
				c-1.89-5.078-5.991-15.015-11.092-27.369c-32.91-79.726-109.974-266.429-111.69-375.333c-0.674-42.852,9.92-75.691,31.492-97.603
				c23.723-24.097,54.555-29.152,76.244-29.152c2.389,0,4.609,0.062,6.629,0.16c1.729-9.567,2.791-25.991-3.071-47.292
				c-10.651-38.652-18.31-58.598-18.382-58.794c-1.444-3.727-1.186-7.9,0.705-11.422s5.225-6.041,9.126-6.901
				C2664.517,8.488,2709.125,0,2791.976,0l3.433,0.018L2798.681,0c82.859,0,127.468,8.488,191.086,22.469
				c3.896,0.861,7.231,3.384,9.121,6.901c1.891,3.522,2.149,7.695,0.704,11.422c-0.07,0.196-7.738,20.142-18.376,58.794
				c-5.831,21.167-4.753,37.671-3.04,47.292c2.015-0.098,4.217-0.16,6.598-0.16c21.685,0,52.518,5.055,76.234,29.156
				c21.568,21.912,32.17,54.747,31.492,97.598c-1.711,108.922-78.784,295.644-111.703,375.378
				c-5.092,12.331-9.184,22.25-11.074,27.324C2961.582,716.244,2857.787,727.006,2796.915,727.006z M2795.328,699.598l1.587,0.018
				c88.263,0,141.966-18.916,146.005-29.058c0.125-0.981,0.295-1.623,0.624-2.555c1.882-5.256,6.099-15.47,11.939-29.606
				c29.53-71.558,108.003-261.636,109.626-365.356c0.562-35.237-7.392-61.464-23.619-77.951
				c-17.075-17.342-40.266-20.98-56.717-20.98c-8.497,0-14.204,1.021-14.266,1.03c-6.251,1.159-12.572-2.198-15.096-8.083
				c-0.526-1.23-12.75-30.663-0.606-74.737c5.697-20.704,10.548-36.151,13.954-46.382c-58.821-12.59-98.642-18.546-170.079-18.546
				l-3.272,0.018l-3.433-0.018c-71.429,0-111.258,5.956-170.07,18.546c3.406,10.231,8.252,25.679,13.954,46.378
				c12.14,44.078-0.08,73.511-0.606,74.741c-2.527,5.916-8.827,9.264-15.14,8.078c-0.018-0.004-5.729-1.025-14.217-1.025
				c-16.455,0-39.656,3.638-56.722,20.976c-16.232,16.491-24.181,42.713-23.628,77.951c1.631,103.706,80.086,293.771,109.626,365.32
				c5.841,14.159,10.062,24.387,11.948,29.647c0.334,0.932,0.566,1.895,0.695,2.871c3.968,9.826,57.671,28.742,145.934,28.742
				L2795.328,699.598z"/>
		</g>
		<g>
			<path fill="#555E71" d="M2874.96,325.928c-26.268,0-47.64-21.373-47.64-47.645v-100.42c-2.31,0.299-4.646,0.45-6.982,0.45
				c-30.333,0-55.022-24.685-55.022-55.027V13.771c0-7.565,6.135-13.695,13.696-13.695c7.569,0,13.695,6.13,13.695,13.695v109.515
				c0,15.238,12.394,27.636,27.631,27.636c4.887,0,9.541-1.253,13.812-3.732c4.244-2.452,9.46-2.46,13.704-0.013
				c4.244,2.448,6.856,6.968,6.856,11.863v119.243c0,11.167,9.086,20.253,20.249,20.253c11.172,0,20.267-9.086,20.267-20.253
				v-32.095c0-5.916,3.799-11.163,9.416-13.009c5.635-1.846,11.796,0.125,15.309,4.891c8.952,12.162,22.684,19.139,37.672,19.139
				c25.822,0,46.828-21.007,46.828-46.829v-44.938c0-7.561,6.135-13.695,13.696-13.695c7.569,0,13.695,6.134,13.695,13.695v44.938
				c0,40.921-33.294,74.219-74.22,74.219c-12.331,0-24.351-3.134-35.006-8.863v2.546
				C2922.617,304.555,2901.236,325.928,2874.96,325.928z"/>
		</g>
	</g>
	<g>
		<path fill="#555E71" d="M2801.444,647.29l-2.095-0.018l-1.712,0.018c-78.491,0-169.674-11.854-196.458-38.332
			c-5.381-5.318-5.431-13.99-0.111-19.371c5.313-5.381,13.989-5.43,19.366-0.111c15.126,14.957,85.543,30.422,177.203,30.422
			l1.702-0.018l2.104,0.018c73.274,0,139.496-9.719,168.706-24.756c6.741-3.473,14.979-0.815,18.448,5.907
			c3.46,6.723,0.82,14.984-5.911,18.443C2949.385,636.64,2879.936,647.29,2801.444,647.29z"/>
	</g>
</g>
<g>
	<g>
		<path fill="#555E71" d="M421.115,1500.171c-182.54,0-406.259-169.848-415.692-177.077c-3.417-2.619-5.422-6.68-5.422-10.989
			c0-4.309,2.006-8.369,5.422-10.988c9.434-7.229,233.152-177.096,415.692-177.096c224.661,0,258.204,117.839,258.204,188.084
			C679.319,1382.342,645.775,1500.171,421.115,1500.171z M37.325,1312.104c53.164,37.848,236.673,160.374,383.79,160.374
			c150.8,0,230.511-55.458,230.511-160.374c0-104.925-79.711-160.391-230.511-160.391
			C273.998,1151.714,90.488,1274.257,37.325,1312.104z"/>
	</g>
	<g>
		<circle fill="#555E71" cx="579.194" cy="1281.271" r="35.522"/>
	</g>
	<g>
		<path fill="#555E71" d="M165.895,1229.248c-1.821,0-3.669-0.361-5.445-1.127c-83.894-35.909-133.249-79.04-146.685-128.188
			c-10.083-36.878,0.032-76.353,30.063-117.324c31.357-42.774,68.619-64.454,110.767-64.454c0.491,0,0.978,0,1.474,0.009
			c95.37,1.136,195.201,115.887,262.157,211.95c4.372,6.274,2.831,14.901-3.439,19.273c-6.288,4.381-14.901,2.83-19.278-3.443
			c-63.241-90.728-156.172-199.096-239.769-200.087c-33.832-0.279-63.07,16.965-89.573,53.122
			c-24.79,33.818-33.435,65.329-25.691,93.652c11.101,40.593,55.133,77.615,130.873,110.032c7.031,3.011,10.29,11.15,7.279,18.182
			C176.379,1226.097,171.268,1229.248,165.895,1229.248z"/>
	</g>
	<g>
		<path fill="#555E71" d="M512.842,1161.458c-1.023,0-2.051-0.117-3.069-0.347c-27.431-6.233-59.014-9.397-93.864-9.397
			c-7.649,0-13.847-6.198-13.847-13.847c0-7.645,6.198-13.847,13.847-13.847c29.248,0,56.449,2.132,81.131,6.347
			c-15.28-130.192-49.485-214.123-99.309-243.263c-27.566-16.131-59.919-15.681-98.898,1.375
			c-33.566,14.676-55.092,34.192-63.977,58.004c-2.672,7.167-10.65,10.805-17.812,8.131c-7.162-2.672-10.804-10.65-8.131-17.812
			c11.602-31.1,38.123-55.895,78.823-73.698c47.006-20.558,88.717-20.526,123.978,0.1c60.979,35.661,99.638,130.882,114.908,283.021
			c0.442,4.436-1.271,8.812-4.611,11.764C519.455,1160.246,516.182,1161.458,512.842,1161.458z"/>
	</g>
	<g>
		<path fill="#555E71" d="M147.717,1407.366c-7.648,0-13.846-6.197-13.846-13.847v-165.836c0-7.648,6.198-13.847,13.846-13.847
			c7.649,0,13.847,6.198,13.847,13.847v165.836C161.563,1401.169,155.366,1407.366,147.717,1407.366z"/>
	</g>
	<g>
		<path fill="#555E71" d="M262.779,1466.308c-7.649,0-13.846-6.197-13.846-13.846v-279.037c0-7.648,6.197-13.846,13.846-13.846
			s13.846,6.197,13.846,13.846v279.037C276.625,1460.11,270.428,1466.308,262.779,1466.308z"/>
	</g>
	<g>
		<path fill="#555E71" d="M377.832,1490.503c-7.649,0-13.846-6.197-13.846-13.847v-332.182c0-7.648,6.197-13.847,13.846-13.847
			s13.846,6.198,13.846,13.847v332.182C391.678,1484.306,385.48,1490.503,377.832,1490.503z"/>
	</g>
	<g>
		<path fill="#555E71" d="M492.889,1492.112c-7.649,0-13.846-6.197-13.846-13.847v-333.872c0-7.648,6.197-13.846,13.846-13.846
			s13.846,6.197,13.846,13.846v333.872C506.735,1485.915,500.538,1492.112,492.889,1492.112z"/>
	</g>
	<g>
		<path fill="#555E71" d="M675.154,1323.522c-7.329,0-13.445-5.752-13.814-13.157c-0.383-7.636,5.499-14.135,13.139-14.519
			l38.654-1.934c7.59-0.4,14.135,5.499,14.518,13.139c0.383,7.636-5.499,14.135-13.139,14.519l-38.655,1.934
			C675.623,1323.518,675.388,1323.522,675.154,1323.522z"/>
	</g>
</g>
</svg>
