<?xml version="1.0" encoding="utf-8"?>
<!-- Generator: Adobe Illustrator 16.0.0, SVG Export Plug-In . SVG Version: 6.00 Build 0)  -->
<!DOCTYPE svg PUBLIC "-//W3C//DTD SVG 1.1//EN" "http://www.w3.org/Graphics/SVG/1.1/DTD/svg11.dtd">
<svg version="1.1" xmlns="http://www.w3.org/2000/svg" xmlns:xlink="http://www.w3.org/1999/xlink" x="0px" y="0px" width="1200px"
	 height="910px" viewBox="0 0 1200 910" enable-background="new 0 0 1200 910" xml:space="preserve">
<g id="Layer_1">
	<rect fill="#F3F4F5" width="1200" height="910"/>
</g>
<g id="Layer_2">
	<g>
		<g>
			<path fill="#565F73" d="M628.191,226.051c-0.626,0-1.253-0.196-1.782-0.587c-0.882-0.651-21.668-16.19-28.803-37.771
				c-0.521-1.573,0.333-3.27,1.906-3.79c1.574-0.521,3.27,0.333,3.791,1.906c5.37,16.243,19.822,29.234,24.889,33.412
				c4.958-4.086,18.9-16.608,24.53-32.356c0.558-1.561,2.273-2.374,3.835-1.815c1.561,0.558,2.373,2.274,1.815,3.834
				c-7.496,20.969-27.549,35.953-28.398,36.581C629.443,225.856,628.817,226.051,628.191,226.051z"/>
		</g>
		<g>
			<path fill="#565F73" d="M606.521,124.718c-0.068,0-0.137-0.002-0.205-0.007c-1.653-0.112-2.903-1.542-2.791-3.196
				c0.974-14.389,11.433-25.661,23.811-25.661c11.831,0.001,21.997,10.296,23.648,23.947c0.198,1.645-0.974,3.14-2.618,3.339
				c-1.644,0.197-3.14-0.973-3.339-2.618c-1.286-10.642-8.893-18.667-17.691-18.668c-9.233,0-17.062,8.814-17.824,20.066
				C609.403,123.504,608.085,124.718,606.521,124.718z"/>
		</g>
		<g>
			<path fill="#565F73" d="M576.312,214.781c-0.002,0-0.003,0-0.006,0c-5.29-0.002-10.771-2.489-16.292-7.392
				c-10.896-9.677-14.006-21.762-8.996-34.948c4.822-12.691,16.852-26.417,35.755-40.795c7.447-5.664,14.339-10.16,18.811-12.935
				c8.479-5.262,9.247-5.262,9.925-5.262c0.324,0,0.646,0.053,0.954,0.156l0.857,0.288c1.336,0.448,2.18,1.765,2.028,3.166
				c-0.025,0.24-2.656,24.264-8.93,47.972C601.685,198.041,590.208,214.781,576.312,214.781z M612.808,121.278
				c-13.468,7.756-54.061,34.546-57.869,59.557c-1.266,8.312,1.698,15.531,9.059,22.068c4.391,3.899,8.532,5.876,12.31,5.878
				C597.26,208.788,609.179,149.618,612.808,121.278z"/>
		</g>
		<g>
			<path fill="#565F73" d="M679.269,214.781c-13.898,0-25.376-16.74-34.112-49.754c-6.272-23.707-8.904-47.728-8.93-47.968
				c-0.151-1.401,0.693-2.718,2.029-3.166l0.858-0.288c0.308-0.103,0.629-0.155,0.953-0.155c0.677,0,1.444,0,9.925,5.262
				c4.471,2.774,11.363,7.271,18.811,12.935c18.902,14.378,30.933,28.103,35.755,40.795c5.01,13.186,1.898,25.271-8.997,34.948
				C690.038,212.294,684.556,214.781,679.269,214.781z M642.768,121.278c3.629,28.337,15.549,87.503,36.501,87.503
				c3.774,0,7.916-1.978,12.308-5.878c7.361-6.538,10.325-13.756,9.06-22.068C696.829,155.827,656.236,129.035,642.768,121.278z"/>
		</g>
		<g>
			<path fill="#565F73" d="M626.93,141.732c-11.143,0-14.066-3.09-14.806-4.419c-0.799-1.434-0.217-3.208,1.3-3.964
				c1.39-0.694,3.084-0.287,3.971,0.891c0.31,0.237,2.434,1.623,9.535,1.623c8.178,0,10.357-1.845,10.379-1.864
				c-0.139,0.122,2.619-3.5,2.619-3.5l2.193,7.187C641.382,138.636,638.101,141.732,626.93,141.732z"/>
		</g>
		<g>
			<path fill="#565F73" d="M644.923,159.176H611.47c-1.657,0-3-1.343-3-3s1.343-3,3-3h33.453c1.657,0,3,1.343,3,3
				S646.58,159.176,644.923,159.176z"/>
		</g>
		<g>
			<path fill="#565F73" d="M650.908,179.534h-44.187c-1.657,0-3-1.343-3-3s1.343-3,3-3h44.187c1.657,0,3,1.343,3,3
				S652.565,179.534,650.908,179.534z"/>
		</g>
		<g>
			<path fill="#565F73" d="M649.361,199.892h-42.649c-1.657,0-3-1.343-3-3s1.343-3,3-3h42.649c1.657,0,3,1.343,3,3
				S651.019,199.892,649.361,199.892z"/>
		</g>
	</g>
	<g>
		<g>
			<path fill="#565F73" d="M915.837,778.363H814.343c-3.859,0-7-3.141-7-7V656.371c0-1.657,1.343-3,3-3s3,1.343,3,3v114.992
				c0,0.552,0.448,1,1,1h101.494c0.552,0,1-0.448,1-1V656.371c0-1.657,1.343-3,3-3s3,1.343,3,3v114.992
				C922.837,775.223,919.696,778.363,915.837,778.363z"/>
		</g>
		<g>
			<path fill="#565F73" d="M901.757,699.262h-73.333c-3.859,0-7-2.961-7-6.601v-10.8c0-3.639,3.141-6.6,7-6.6h73.333
				c3.859,0,7,2.961,7,6.6v10.8C908.757,696.301,905.616,699.262,901.757,699.262z M828.424,681.262c-0.602,0-1,0.361-1,0.6v10.8
				c0,0.239,0.398,0.601,1,0.601h73.333c0.602,0,1-0.361,1-0.601v-10.8c0-0.238-0.398-0.6-1-0.6H828.424z"/>
		</g>
		<g>
			<g>
				<path fill="#565F73" d="M836.424,795.594h-8.667c-3.859,0-7-3.141-7-7v-10.666c0-1.657,1.343-3,3-3s3,1.343,3,3v10.666
					c0,0.552,0.448,1,1,1h8.667c0.552,0,1-0.448,1-1v-10.666c0-1.657,1.343-3,3-3s3,1.343,3,3v10.666
					C843.424,792.453,840.283,795.594,836.424,795.594z"/>
			</g>
			<g>
				<path fill="#565F73" d="M902.424,795.594h-8.667c-3.859,0-7-3.141-7-7v-10.666c0-1.657,1.343-3,3-3s3,1.343,3,3v10.666
					c0,0.552,0.448,1,1,1h8.667c0.552,0,1-0.448,1-1v-10.666c0-1.657,1.343-3,3-3s3,1.343,3,3v10.666
					C909.424,792.453,906.283,795.594,902.424,795.594z"/>
			</g>
		</g>
		<g>
			<path fill="#565F73" d="M929.204,658.928H800.976c-3.796,0-6.885-3.141-6.885-7v-9.334c0-3.859,3.089-7,6.885-7h128.229
				c3.797,0,6.886,3.141,6.886,7v9.334C936.09,655.787,933.001,658.928,929.204,658.928z M800.976,641.594
				c-0.488,0-0.885,0.448-0.885,1v9.334c0,0.552,0.396,1,0.885,1h128.229c0.488,0,0.886-0.448,0.886-1v-9.334
				c0-0.552-0.397-1-0.886-1H800.976z"/>
		</g>
	</g>
	<g>
		<g>
			<path fill="#565F73" d="M398.125,458.536h-27.809c-1.072,0-2.062-0.571-2.598-1.499l-13.904-24.083c-0.536-0.928-0.536-2.072,0-3
				l13.904-24.083c0.536-0.928,1.526-1.5,2.598-1.5h27.809c1.072,0,2.062,0.572,2.598,1.5l13.905,24.083
				c0.536,0.928,0.536,2.072,0,3l-13.905,24.083C400.188,457.965,399.197,458.536,398.125,458.536z M372.048,452.537h24.345
				l12.172-21.083l-12.172-21.083h-24.345l-12.172,21.083L372.048,452.537z"/>
		</g>
		<g>
			<path fill="#565F73" d="M440.316,432.621c-0.509,0-1.024-0.129-1.497-0.402c-1.435-0.829-1.926-2.663-1.098-4.098l13.039-22.583
				l-12.172-21.083H412.51c-1.657,0-3-1.343-3-3s1.343-3,3-3h27.809c1.072,0,2.062,0.572,2.598,1.5l13.905,24.083
				c0.536,0.928,0.536,2.072,0,3l-13.905,24.083C442.362,432.083,441.354,432.621,440.316,432.621z"/>
		</g>
		<g>
			<path fill="#565F73" d="M325.194,432.621c-1.037,0-2.045-0.538-2.601-1.5l-13.905-24.083c-0.536-0.928-0.536-2.072,0-3
				l13.905-24.083c0.536-0.928,1.526-1.5,2.598-1.5H353c1.657,0,3,1.343,3,3s-1.343,3-3,3h-26.077l-12.172,21.083l13.039,22.583
				c0.828,1.435,0.337,3.27-1.098,4.098C326.219,432.491,325.703,432.621,325.194,432.621z"/>
		</g>
		<g>
			<path fill="#565F73" d="M440.48,483.014h-27.81c-1.657,0-3-1.343-3-3s1.343-3,3-3h26.078l12.171-21.083l-12.171-21.084H412.67
				c-1.657,0-3-1.343-3-3s1.343-3,3-3h27.81c1.072,0,2.062,0.572,2.598,1.5l13.903,24.084c0.536,0.928,0.536,2.072,0,3
				l-13.903,24.083C442.542,482.441,441.552,483.014,440.48,483.014z"/>
		</g>
		<g>
			<path fill="#565F73" d="M353.718,483.014h-27.809c-1.072,0-2.062-0.571-2.598-1.5l-13.905-24.083c-0.536-0.928-0.536-2.072,0-3
				l13.905-24.084c0.536-0.928,1.526-1.5,2.598-1.5h27.809c1.657,0,3,1.343,3,3s-1.343,3-3,3h-26.077l-12.173,21.084l12.173,21.083
				h26.077c1.657,0,3,1.343,3,3S355.375,483.014,353.718,483.014z"/>
		</g>
		<g>
			<path fill="#565F73" d="M398.125,508.93h-27.809c-1.072,0-2.062-0.571-2.598-1.5l-13.904-24.082c-0.536-0.928-0.536-2.072,0-3
				l13.904-24.083c0.829-1.434,2.663-1.927,4.098-1.098c1.435,0.829,1.926,2.664,1.098,4.098l-13.038,22.583l12.172,21.082h24.345
				l12.172-21.082l-13.039-22.583c-0.828-1.435-0.337-3.27,1.098-4.098c1.435-0.827,3.27-0.336,4.098,1.098l13.905,24.083
				c0.536,0.928,0.536,2.072,0,3l-13.905,24.082C400.188,508.358,399.197,508.93,398.125,508.93z"/>
		</g>
		<g>
			<path fill="#565F73" d="M368.88,408.145c-1.037,0-2.045-0.538-2.601-1.5l-13.905-24.084c-0.536-0.928-0.536-2.072,0-3
				l13.905-24.083c0.536-0.928,1.526-1.5,2.598-1.5h27.809c1.072,0,2.062,0.572,2.598,1.5l13.904,24.083
				c0.536,0.928,0.536,2.072,0,3l-13.904,24.084c-0.828,1.435-2.661,1.928-4.098,1.098c-1.435-0.829-1.926-2.663-1.098-4.098
				l13.039-22.584l-12.172-21.083h-24.345l-12.173,21.083l13.039,22.584c0.828,1.435,0.337,3.27-1.098,4.098
				C369.905,408.015,369.389,408.145,368.88,408.145z"/>
		</g>
	</g>
	<g>
		<g>
			<g>
				<path fill="#565F73" d="M822.775,241.023c-0.519,0-1.037-0.134-1.502-0.403l-34.665-20.048c-0.928-0.537-1.499-1.527-1.498-2.6
					l0.029-40.044c0.001-1.072,0.573-2.062,1.502-2.597l34.694-19.997c0.929-0.535,2.071-0.535,3,0.002l12.781,7.392
					c1.435,0.83,1.925,2.665,1.095,4.099c-0.829,1.435-2.665,1.924-4.099,1.095l-11.282-6.525l-31.692,18.267l-0.027,36.581
					l31.667,18.314l31.692-18.268l0.004-4.106c0.001-1.656,1.345-2.998,3-2.998h0.003c1.656,0.001,2.998,1.346,2.997,3.002
					l-0.005,5.838c-0.001,1.072-0.573,2.062-1.502,2.597l-34.694,19.998C823.81,240.89,823.293,241.023,822.775,241.023z"/>
			</g>
			<g>
				<path fill="#565F73" d="M907.346,241.023c-0.519,0-1.037-0.134-1.502-0.403l-34.664-20.048c-0.928-0.537-1.499-1.528-1.498-2.6
					l0.005-5.812c0.001-1.656,1.345-2.998,3-2.998c0,0,0.002,0,0.003,0c1.656,0.001,2.998,1.346,2.997,3.002l-0.004,4.08
					l31.666,18.314l31.694-18.268l0.026-36.58l-31.666-18.315l-11.472,6.613c-1.437,0.828-3.271,0.333-4.097-1.101
					c-0.828-1.436-0.335-3.27,1.101-4.098l12.973-7.479c0.929-0.535,2.071-0.535,3,0.002l34.664,20.049
					c0.928,0.536,1.499,1.527,1.498,2.599l-0.028,40.044c-0.001,1.072-0.573,2.062-1.502,2.597l-34.696,19.997
					C908.38,240.89,907.863,241.023,907.346,241.023z"/>
			</g>
			<g>
				<path fill="#565F73" d="M888.432,155.414c-1.038,0-2.047-0.539-2.603-1.502c-0.827-1.436-0.334-3.27,1.102-4.097l9.826-5.664
					l0.028-36.579l-31.668-18.314l-31.691,18.267l-0.028,36.58l9.818,5.679c1.435,0.829,1.925,2.665,1.095,4.099
					c-0.829,1.435-2.666,1.926-4.099,1.095l-11.317-6.546c-0.928-0.537-1.499-1.527-1.498-2.599l0.03-40.044
					c0.001-1.072,0.573-2.062,1.502-2.597l34.693-19.997c0.929-0.535,2.071-0.535,3,0.002l34.666,20.049
					c0.928,0.537,1.499,1.528,1.498,2.6l-0.03,40.043c-0.001,1.072-0.573,2.062-1.502,2.597l-11.327,6.529
					C889.455,155.284,888.939,155.414,888.432,155.414z"/>
			</g>
			<g>
				<path fill="#565F73" d="M865.027,204.977c-13.719,0-24.88-11.161-24.88-24.879c0-5.397,3.437-14.317,10.507-27.269
					c5.716-10.47,11.802-19.791,11.863-19.884c0.554-0.847,1.497-1.357,2.51-1.357c1.012,0,1.956,0.51,2.51,1.357
					c2.29,3.498,22.37,34.539,22.37,47.153C889.907,193.816,878.746,204.977,865.027,204.977z M865.034,140.172
					c-2.268,3.633-5.756,9.38-9.114,15.531c-8.503,15.578-9.772,21.97-9.772,24.394c0,10.41,8.47,18.879,18.88,18.879
					s18.88-8.469,18.88-18.879C883.907,172.028,871.959,151.246,865.034,140.172z"/>
			</g>
		</g>
		<g>
			<path fill="#565F73" d="M867.433,194.979c-1.509,0-2.808-1.135-2.978-2.669c-0.184-1.646,1.004-3.13,2.65-3.312
				c6.762-0.751,6.448-9.359,6.432-9.726c-0.075-1.655,1.206-3.058,2.861-3.133c1.647-0.067,3.058,1.206,3.133,2.861
				c0.229,5.043-1.935,14.87-11.764,15.961C867.655,194.973,867.543,194.979,867.433,194.979z"/>
		</g>
	</g>
	<g>
		<g>
			<g>
				<path fill="#565F73" d="M192.497,511.079H82.593c-1.396,0-2.608-0.964-2.923-2.324c-1.012-4.375-1.445-9.081-1.288-13.987
					c0.788-24.418,5.944-54.235,39.104-68.181c1.528-0.643,3.286,0.076,3.929,1.603c0.642,1.527-0.075,3.286-1.603,3.929
					c-29.841,12.55-34.657,38.81-35.433,62.843c-0.113,3.522,0.111,6.915,0.667,10.118H189.79c0.374-3.902,0.759-9.055,0.616-10.636
					c-1.913-21.041-4.533-49.857-39.484-61.895c-1.566-0.54-2.399-2.247-1.859-3.813c0.54-1.566,2.243-2.4,3.813-1.859
					c38.621,13.302,41.56,45.631,43.505,67.025c0.306,3.377-0.891,14.405-0.904,14.514
					C195.307,509.932,194.023,511.079,192.497,511.079z"/>
			</g>
		</g>
		<g>
			<path fill="#565F73" d="M136.147,438.946c-16.339,0-29.632-16.634-29.632-37.08c0-2.105,0.142-4.215,0.421-6.272
				c0.223-1.641,1.735-2.788,3.376-2.569c1.642,0.223,2.792,1.734,2.569,3.376c-0.243,1.79-0.366,3.629-0.366,5.465
				c0,17.137,10.601,31.08,23.632,31.08c13.032,0,23.634-13.942,23.634-31.08c0-1.846-0.125-3.695-0.37-5.496
				c-0.224-1.642,0.926-3.154,2.567-3.378c1.637-0.224,3.154,0.925,3.378,2.567c0.282,2.069,0.425,4.19,0.425,6.307
				C165.781,422.312,152.487,438.946,136.147,438.946z"/>
		</g>
		<g>
			<path fill="#565F73" d="M137.668,399.898c-29.219,0-60.667-5.599-60.667-17.892c-0.001-10.527,22.378-14.827,35.718-16.453
				c1.643-0.203,3.14,0.97,3.341,2.615c0.2,1.645-0.97,3.14-2.615,3.341c-22.778,2.776-30.443,8.371-30.443,10.497
				c0,4.036,19.295,11.892,54.667,11.892s54.667-7.855,54.667-11.892c0-2.187-7.926-7.897-31.478-10.62
				c-1.646-0.19-2.826-1.679-2.636-3.324c0.19-1.646,1.686-2.833,3.324-2.636c11.062,1.278,36.791,5.453,36.79,16.58
				C198.335,394.3,166.887,399.898,137.668,399.898z"/>
		</g>
		<g>
			<path fill="#565F73" d="M137.668,453.763c-29.219,0-60.667-5.599-60.667-17.892c0-1.657,1.343-3,3-3s3,1.343,3,3
				c0,4.036,19.295,11.892,54.667,11.892s54.667-7.856,54.667-11.892c0-1.657,1.343-3,3-3s3,1.343,3,3
				C198.335,448.164,166.887,453.763,137.668,453.763z"/>
		</g>
		<g>
			<path fill="#565F73" d="M137.668,390.124c-10.563,0-20.504-1.081-27.991-3.044c-1.294-0.339-2.207-1.494-2.238-2.831
				l-0.007-0.229c-0.006-0.195-0.012-0.391-0.012-0.587c0-17.378,13.569-31.516,30.249-31.516c16.68,0,30.25,14.138,30.25,31.516
				c0,0.197-0.006,0.392-0.012,0.587l-0.007,0.229c-0.031,1.337-0.944,2.492-2.238,2.831
				C158.173,389.043,148.232,390.124,137.668,390.124z M113.467,381.824c6.705,1.489,15.186,2.3,24.201,2.3
				c9.016,0,17.497-0.812,24.202-2.3c-0.791-13.323-11.344-23.907-24.202-23.907C124.811,357.917,114.258,368.5,113.467,381.824z"/>
		</g>
		<g>
			<path fill="#565F73" d="M80.002,438.238c-1.657,0-3-1.343-3-3v-53.231c0-1.657,1.343-3,3-3s3,1.343,3,3v53.231
				C83.002,436.895,81.659,438.238,80.002,438.238z"/>
		</g>
		<g>
			<path fill="#565F73" d="M195.335,438.555c-1.657,0-3-1.343-3-3v-53.231c0-1.657,1.343-3,3-3s3,1.343,3,3v53.231
				C198.335,437.211,196.992,438.555,195.335,438.555z"/>
		</g>
	</g>
	<g>
		<g>
			<g>
				<g>
					<path fill="#565F73" d="M201.107,236.079L201.107,236.079c-4.259,0-8.33-1.59-11.462-4.477
						c-2.872-2.646-20.805-23.526-53.303-62.061c-0.974-1.155-0.937-2.855,0.087-3.967l5.991-6.501
						c1.023-1.112,2.714-1.288,3.946-0.411c41.064,29.243,63.34,45.411,66.208,48.055c3.323,3.062,5.255,7.235,5.44,11.751
						c0.185,4.516-1.4,8.833-4.463,12.157C210.359,234.09,205.823,236.079,201.107,236.079z M142.634,167.694
						c40.935,48.521,49.584,58.12,51.077,59.495c2.021,1.863,4.648,2.889,7.396,2.889c3.044,0,5.972-1.283,8.033-3.52
						c1.977-2.145,3-4.932,2.88-7.846c-0.119-2.914-1.366-5.607-3.511-7.583c-1.491-1.375-11.762-9.21-63.468-46.046
						L142.634,167.694z"/>
				</g>
			</g>
			<g>
				<path fill="#565F73" d="M71.226,140.377c-3.504,0-6.853-1.308-9.431-3.683c-5.645-5.204-6.006-14.028-0.805-19.673l27.411-29.75
					c2.628-2.853,6.362-4.488,10.242-4.488c3.504,0,6.854,1.309,9.432,3.685c2.734,2.52,4.324,5.953,4.476,9.669
					s-1.153,7.268-3.673,10.003l-27.411,29.75C78.839,138.742,75.106,140.377,71.226,140.377z M98.643,88.783
					c-2.209,0-4.333,0.931-5.83,2.554l-27.411,29.75c-2.959,3.212-2.754,8.234,0.458,11.195c1.466,1.351,3.372,2.095,5.365,2.095
					c2.241,0,4.312-0.907,5.829-2.554l27.41-29.75c1.435-1.557,2.177-3.578,2.09-5.692s-0.991-4.068-2.547-5.501
					C102.542,89.528,100.636,88.783,98.643,88.783z"/>
			</g>
			<g>
				<path fill="#565F73" d="M82.768,160.088c-3.504,0-6.853-1.308-9.431-3.684c-2.735-2.519-4.325-5.953-4.477-9.669
					s1.152-7.268,3.672-10.002l36.458-39.568c2.628-2.853,6.36-4.489,10.24-4.489c3.503,0,6.853,1.308,9.432,3.684
					c2.735,2.52,4.325,5.954,4.477,9.67c0.152,3.715-1.152,7.268-3.672,10.002L93.009,155.6
					C90.381,158.453,86.648,160.088,82.768,160.088z M119.23,98.676c-2.241,0-4.311,0.907-5.828,2.554l-36.458,39.568
					c-1.434,1.556-2.176,3.578-2.089,5.692c0.087,2.114,0.991,4.068,2.548,5.501c1.467,1.352,3.372,2.096,5.365,2.096
					c2.241,0,4.312-0.907,5.829-2.554l36.457-39.567c1.434-1.556,2.176-3.578,2.089-5.692s-0.991-4.068-2.547-5.502
					C123.128,99.421,121.223,98.676,119.23,98.676z"/>
			</g>
			<g>
				<path fill="#565F73" d="M118.975,184.372c-3.503,0-6.853-1.308-9.43-3.683c-2.735-2.52-4.326-5.954-4.478-9.669
					c-0.152-3.716,1.152-7.269,3.672-10.003l27.411-29.75c2.628-2.852,6.361-4.488,10.241-4.488c3.504,0,6.854,1.308,9.432,3.684
					c2.735,2.521,4.325,5.955,4.477,9.67c0.152,3.716-1.152,7.268-3.673,10.002l-27.411,29.75
					C126.588,182.736,122.855,184.372,118.975,184.372z M146.391,132.778c-2.241,0-4.311,0.907-5.829,2.554l-27.411,29.75
					c-1.434,1.556-2.176,3.578-2.09,5.691c0.087,2.115,0.992,4.069,2.549,5.503c1.467,1.352,3.372,2.096,5.365,2.096
					c2.241,0,4.312-0.907,5.829-2.554l27.411-29.75c1.434-1.556,2.176-3.577,2.09-5.691s-0.991-4.068-2.547-5.502
					C150.29,133.522,148.384,132.778,146.391,132.778z"/>
			</g>
			<g>
				<path fill="#565F73" d="M98.386,174.479c-3.503,0-6.853-1.308-9.43-3.684c-5.645-5.202-6.006-14.026-0.805-19.672l36.458-39.568
					c2.628-2.853,6.36-4.488,10.241-4.488c3.503,0,6.853,1.308,9.431,3.683c5.646,5.203,6.006,14.028,0.804,19.674l-36.456,39.567
					C106,172.843,102.267,174.479,98.386,174.479z M134.85,113.067c-2.241,0-4.312,0.907-5.829,2.554l-36.458,39.568
					c-2.959,3.212-2.754,8.234,0.458,11.194c1.467,1.352,3.372,2.096,5.364,2.096c2.242,0,4.312-0.907,5.83-2.554l36.456-39.567
					c2.96-3.212,2.755-8.235-0.458-11.195C138.748,113.812,136.842,113.067,134.85,113.067z"/>
			</g>
		</g>
		<g>
			<path fill="#565F73" d="M82.169,241.023c-11.319,0-20.527-9.208-20.527-20.527c0-4.427,2.777-11.666,8.49-22.131
				c4.589-8.408,9.328-15.665,9.527-15.97c0.554-0.847,1.498-1.357,2.51-1.357c1.012,0,1.956,0.51,2.51,1.357
				c1.844,2.817,18.018,27.822,18.018,38.101C102.697,231.815,93.488,241.023,82.169,241.023z M82.178,189.638
				c-1.801,2.909-4.334,7.122-6.78,11.603c-6.749,12.363-7.756,17.371-7.756,19.256c0,8.01,6.517,14.527,14.527,14.527
				c8.011,0,14.528-6.517,14.528-14.527C96.697,214.869,88.608,199.989,82.178,189.638z"/>
		</g>
	</g>
	<g>
		<g>
			<g>
				<path fill="#565F73" d="M174.361,795.594h-24.186c-0.856,0-1.671-0.365-2.24-1.005c-0.569-0.639-0.838-1.491-0.74-2.341
					c0.189-1.632,0.286-3.291,0.286-4.931c0-12.473-5.051-21.164-9.583-21.164s-9.583,8.691-9.583,21.164
					c0,1.533,0.083,3.077,0.247,4.596c0.051,0.219,0.078,0.446,0.078,0.681c0,1.657-1.343,3-3,3c-0.007-0.001-0.014-0.001-0.02,0
					h-24.185c-0.997,0-1.928-0.495-2.486-1.321c-10.421-15.427-16.16-35.998-16.16-57.923c0-24.368,12.892-44.779,23.708-57.611
					c11.213-13.306,25.3-24.13,31.402-24.13s20.188,10.824,31.402,24.13c10.815,12.832,23.707,33.243,23.707,57.611
					c0,21.925-5.739,42.496-16.159,57.923C176.289,795.099,175.357,795.594,174.361,795.594z M153.427,789.594h19.319
					c9.206-14.296,14.26-33.129,14.26-53.244c0-42.507-43.413-75.632-49.111-75.741c-5.694,0.109-49.107,33.234-49.107,75.741
					c0,20.115,5.054,38.948,14.26,53.244h19.319c-0.036-0.759-0.053-1.519-0.053-2.276c0-15.232,6.845-27.164,15.583-27.164
					s15.583,11.932,15.583,27.164C153.48,788.074,153.462,788.834,153.427,789.594z"/>
			</g>
			<g>
				<path fill="#565F73" d="M164.122,682.828h-53.75c-1.657,0-3-1.343-3-3s1.343-3,3-3h53.75c1.657,0,3,1.343,3,3
					S165.779,682.828,164.122,682.828z"/>
			</g>
			<g>
				<path fill="#565F73" d="M180.125,705.464H96.011c-1.657,0-3-1.343-3-3s1.343-3,3-3h84.114c1.657,0,3,1.343,3,3
					S181.781,705.464,180.125,705.464z"/>
			</g>
			<g>
				<path fill="#565F73" d="M186.69,728.101H87.806c-1.657,0-3-1.343-3-3s1.343-3,3-3h98.884c1.657,0,3,1.343,3,3
					S188.347,728.101,186.69,728.101z"/>
			</g>
			<g>
				<path fill="#565F73" d="M187.099,750.738H88.215c-1.657,0-3-1.343-3-3s1.343-3,3-3h98.884c1.657,0,3,1.343,3,3
					S188.756,750.738,187.099,750.738z"/>
			</g>
			<g>
				<path fill="#565F73" d="M128.426,773.373H91.498c-1.657,0-3-1.343-3-3s1.343-3,3-3h36.928c1.657,0,3,1.343,3,3
					S130.083,773.373,128.426,773.373z"/>
			</g>
			<g>
				<path fill="#565F73" d="M184.229,773.373h-36.929c-1.657,0-3-1.343-3-3s1.343-3,3-3h36.929c1.657,0,3,1.343,3,3
					S185.885,773.373,184.229,773.373z"/>
			</g>
		</g>
		<g>
			<path fill="#565F73" d="M74.032,693.538c0,2.409-2.951,4.362-6.59,4.362c-3.64,0-6.589-1.953-6.589-4.362
				c0-2.412,2.95-4.365,6.589-4.365C71.081,689.173,74.032,691.126,74.032,693.538z"/>
		</g>
		<g>
			<ellipse fill="#565F73" cx="90.309" cy="680.446" rx="6.59" ry="4.365"/>
		</g>
		<g>
			<ellipse fill="#565F73" cx="71.57" cy="719.283" rx="6.59" ry="4.363"/>
		</g>
		<g>
			<ellipse fill="#565F73" cx="207.894" cy="717.538" rx="6.59" ry="4.364"/>
		</g>
		<g>
			<ellipse fill="#565F73" cx="195.891" cy="693.974" rx="6.59" ry="4.363"/>
		</g>
	</g>
	<g>
		<g>
			<g>
				<g>
					<path fill="#565F73" d="M653.88,726.262c-0.589,0-1.183-0.173-1.701-0.53l-5.021-3.462c-1.262-0.87-1.665-2.552-0.935-3.899
						c19.513-35.986,30.318-55.557,32.119-58.167c2.871-4.164,7.337-6.65,11.946-6.65c2.386,0,4.653,0.694,6.558,2.008
						c2.849,1.964,4.62,5.073,4.988,8.755c0.349,3.496-0.627,7.115-2.747,10.189c-1.797,2.61-16.241,19.673-42.931,50.713
						C655.567,725.903,654.729,726.262,653.88,726.262z M652.783,718.86l0.581,0.401c33.283-38.725,39.854-46.813,40.782-48.161
						c1.315-1.908,1.925-4.105,1.717-6.189c-0.189-1.897-1.051-3.464-2.424-4.411c-0.911-0.629-1.972-0.947-3.151-0.947
						c-2.597,0-5.281,1.555-7.007,4.057C682.352,664.957,677.134,673.97,652.783,718.86z"/>
				</g>
			</g>
			<g>
				<path fill="#565F73" d="M632.307,783.808c-2.139,0-4.203-0.643-5.969-1.859l-22.971-15.834c-2.317-1.597-3.874-4-4.382-6.768
					s0.092-5.567,1.69-7.884c1.964-2.851,5.208-4.554,8.675-4.554c2.14,0,4.205,0.645,5.972,1.862l22.969,15.833
					c4.781,3.293,5.992,9.864,2.697,14.647C639.019,782.105,635.774,783.808,632.307,783.808z M609.351,752.909
					c-1.494,0-2.891,0.732-3.735,1.959c-0.689,0.998-0.947,2.203-0.729,3.395c0.219,1.19,0.889,2.225,1.885,2.912l22.97,15.833
					c0.761,0.523,1.647,0.8,2.565,0.8c1.495,0,2.895-0.733,3.742-1.961c1.416-2.057,0.896-4.885-1.162-6.302l-22.97-15.834
					C611.155,753.187,610.269,752.909,609.351,752.909z"/>
			</g>
			<g>
				<path fill="#565F73" d="M644.648,774.018c-2.141,0-4.206-0.645-5.973-1.864l-30.549-21.056
					c-4.779-3.296-5.988-9.867-2.696-14.647c1.969-2.855,5.214-4.559,8.682-4.559c2.14,0,4.203,0.644,5.97,1.86l30.551,21.062
					c2.315,1.596,3.871,3.998,4.38,6.765c0.51,2.769-0.09,5.567-1.688,7.884C651.36,772.313,648.116,774.018,644.648,774.018z
					 M614.112,737.892c-1.495,0-2.894,0.734-3.741,1.963c-1.416,2.057-0.896,4.885,1.161,6.304l30.55,21.057
					c0.762,0.525,1.648,0.803,2.566,0.803c1.494,0,2.891-0.733,3.736-1.962c0.688-0.997,0.946-2.201,0.728-3.392
					c-0.22-1.19-0.889-2.224-1.885-2.91l-30.551-21.062C615.917,738.169,615.03,737.892,614.112,737.892z"/>
			</g>
			<g>
				<path fill="#565F73" d="M657.722,746.942c-2.141,0-4.205-0.645-5.972-1.862l-22.971-15.834c-2.317-1.597-3.873-4-4.382-6.767
					c-0.509-2.768,0.091-5.566,1.688-7.883c1.965-2.853,5.209-4.556,8.677-4.556c2.141,0,4.206,0.645,5.973,1.864l22.97,15.831
					c4.779,3.296,5.988,9.867,2.696,14.647C664.434,745.238,661.189,746.942,657.722,746.942z M634.763,716.041
					c-1.494,0-2.891,0.733-3.736,1.961c-0.688,0.998-0.946,2.202-0.728,3.393s0.889,2.225,1.885,2.912l22.972,15.834
					c0.761,0.524,1.648,0.802,2.566,0.802c1.494,0,2.892-0.734,3.739-1.963c1.416-2.057,0.896-4.885-1.161-6.304l-22.971-15.832
					C636.567,716.318,635.681,716.041,634.763,716.041z"/>
			</g>
			<g>
				<path fill="#565F73" d="M652.96,761.958c-2.139,0-4.204-0.644-5.971-1.86l-30.55-21.06c-2.316-1.597-3.873-3.999-4.382-6.766
					c-0.51-2.768,0.09-5.567,1.688-7.885c1.967-2.852,5.21-4.555,8.678-4.555c2.14,0,4.205,0.645,5.972,1.862l30.551,21.058
					c4.781,3.295,5.989,9.867,2.695,14.649C659.672,760.256,656.427,761.958,652.96,761.958z M622.423,725.833
					c-1.494,0-2.892,0.732-3.738,1.961c-0.688,0.997-0.945,2.202-0.727,3.393c0.22,1.19,0.89,2.225,1.887,2.911l30.549,21.06
					c0.76,0.523,1.648,0.801,2.566,0.801c1.495,0,2.894-0.733,3.741-1.962c1.416-2.057,0.896-4.885-1.161-6.304l-30.552-21.058
					C624.227,726.11,623.34,725.833,622.423,725.833z"/>
			</g>
		</g>
		<g>
			<path fill="#565F73" d="M627.788,795.594c-21.061,0-41.072-9.048-56.35-25.477c-14.766-15.878-23.234-37.122-23.234-58.284
				c0-1.657,1.343-3,3-3h67.185c1.657,0,3,1.343,3,3s-1.343,3-3,3h-64.127c1.551,40.827,34.59,74.761,73.527,74.761
				c38.937,0,71.976-33.934,73.526-74.761H678.96c-1.657,0-3-1.343-3-3s1.343-3,3-3h25.411c1.657,0,3,1.343,3,3
				c0,21.162-8.469,42.406-23.234,58.284C668.859,786.546,648.848,795.594,627.788,795.594z"/>
		</g>
		<g>
			<path fill="#565F73" d="M591.237,749.992h-32.199c-1.657,0-3-1.343-3-3s1.343-3,3-3h32.199c1.657,0,3,1.343,3,3
				S592.894,749.992,591.237,749.992z"/>
		</g>
		<g>
			<path fill="#565F73" d="M694.624,749.992h-21.586c-1.657,0-3-1.343-3-3s1.343-3,3-3h21.586c1.657,0,3,1.343,3,3
				S696.281,749.992,694.624,749.992z"/>
		</g>
	</g>
	<g>
		<g>
			<path fill="#565F73" d="M408.046,241.023h-47.423c-0.491,0-0.974-0.12-1.407-0.35c-22.395-11.889-36.865-38.523-36.865-67.855
				c0-12.368,2.59-24.612,7.49-35.41c0.685-1.509,2.463-2.178,3.972-1.492c1.509,0.685,2.177,2.463,1.492,3.972
				c-4.549,10.024-6.954,21.411-6.954,32.93c0,26.852,12.941,51.173,33.03,62.206h45.907c20.088-11.032,33.029-35.354,33.029-62.206
				c0-10.932-2.176-21.802-6.294-31.436c-0.651-1.523,0.056-3.287,1.58-3.938c1.525-0.651,3.287,0.056,3.938,1.58
				c4.497,10.521,6.777,21.891,6.777,33.794c0,29.332-14.47,55.967-36.864,67.855C409.02,240.903,408.537,241.023,408.046,241.023z"
				/>
		</g>
		<g>
			<path fill="#565F73" d="M425.99,144.064c-8.476,0-16.215-4.44-20.622-11.354c-4.407,6.914-12.146,11.354-20.62,11.354
				c-8.476,0-16.216-4.44-20.623-11.354c-4.407,6.915-12.146,11.354-20.621,11.354c-13.479,0-24.446-10.967-24.446-24.446
				c0-1.124,0.628-2.153,1.626-2.667l26.217-13.501l-3.179-19.075c-0.145-0.87,0.1-1.759,0.67-2.432s1.407-1.061,2.289-1.061h77.857
				c0.882,0,1.719,0.388,2.289,1.061s0.815,1.562,0.67,2.432l-3.248,19.49l24.228,19.241c0.948,0.752,1.35,2,1.021,3.165
				C446.537,136.748,436.87,144.064,425.99,144.064z M405.368,122.456L405.368,122.456c1.343,0,2.522,0.892,2.887,2.184
				c2.234,7.904,9.527,13.425,17.735,13.425c7.549,0,14.325-4.672,17.102-11.573l-23.958-19.027
				c-0.854-0.678-1.273-1.767-1.093-2.842l2.956-17.74h-70.774l2.957,17.74c0.214,1.286-0.426,2.563-1.585,3.16l-26.45,13.621
				c0.9,9.337,8.791,16.661,18.36,16.661c8.208,0,15.5-5.521,17.734-13.425c0.365-1.292,1.544-2.184,2.887-2.184l0,0
				c1.343,0,2.522,0.892,2.887,2.184c2.234,7.904,9.527,13.425,17.736,13.425c8.207,0,15.499-5.521,17.733-13.425
				C402.846,123.348,404.025,122.456,405.368,122.456z"/>
		</g>
		<g>
			<path fill="#565F73" d="M418.717,108.116h-68.766c-1.657,0-3-1.343-3-3s1.343-3,3-3h68.766c1.657,0,3,1.343,3,3
				S420.374,108.116,418.717,108.116z"/>
		</g>
		<g>
			<path fill="#565F73" d="M410.68,199.343h-52.691c-1.657,0-3-1.343-3-3v-29.885c0-1.657,1.343-3,3-3h52.691c1.657,0,3,1.343,3,3
				v29.885C413.68,198,412.337,199.343,410.68,199.343z M360.989,193.343h46.691v-23.885h-46.691V193.343z"/>
		</g>
	</g>
	<g>
		<g>
			<g>
				<path fill="#565F73" d="M1054.19,139.797L1054.19,139.797c-6.432,0-11.686-2.81-14.055-7.516
					c-1.509-2.998-1.677-6.545-0.473-9.988c1.685-4.818,5.782-9.023,11.242-11.537c3.192-1.471,6.642-2.249,9.973-2.249
					c6.431,0,11.685,2.81,14.053,7.516c1.509,2.998,1.677,6.544,0.474,9.987c-1.686,4.819-5.783,9.025-11.244,11.54
					C1060.968,139.02,1057.52,139.797,1054.19,139.797z M1060.878,114.506c-2.471,0-5.051,0.587-7.462,1.699
					c-3.933,1.811-6.956,4.827-8.09,8.068c-0.468,1.339-0.819,3.347,0.169,5.309c1.328,2.639,4.579,4.214,8.695,4.214l0,0
					c2.469,0,5.049-0.587,7.46-1.698c3.932-1.811,6.956-4.828,8.09-8.07c0.468-1.339,0.819-3.347-0.169-5.309
					C1068.243,116.082,1064.994,114.506,1060.878,114.506z"/>
			</g>
			<g>
				<path fill="#565F73" d="M1079.053,122.939c-2.284,0-4.395-0.082-6.271-0.244c-1.341-0.115-2.44-1.11-2.69-2.432
					c-0.102-0.54-0.277-1.059-0.521-1.545c-0.465-0.924-1.176-1.727-2.112-2.383c-0.75-0.526-1.219-1.365-1.272-2.28
					c-0.054-0.914,0.313-1.803,0.996-2.413c7.006-6.262,26.191-17.447,39.482-17.447c8.173,0,11.494,4.19,12.842,7.705
					c1.313,3.428,0.962,6.761-1.018,9.64C1112.301,120.539,1090.789,122.939,1079.053,122.939z M1075.309,116.853
					c1.17,0.058,2.423,0.087,3.744,0.087c13.788,0,30.562-3.083,34.491-8.799c0.856-1.245,0.967-2.507,0.359-4.093
					c-0.635-1.654-2.074-3.853-7.239-3.853c-9.527,0-24.803,7.708-32.969,13.87c0.475,0.611,0.887,1.264,1.235,1.957
					C1075.067,116.294,1075.193,116.571,1075.309,116.853z"/>
			</g>
			<g>
				<path fill="#565F73" d="M1068.494,116.928c-0.577,0-1.156-0.167-1.663-0.504c-2.842-1.895-7.629-2.146-11.892-0.579
					c-1.066,0.391-2.259,0.149-3.087-0.627c-0.828-0.776-1.146-1.953-0.825-3.04c3.391-11.448,13.189-33.098,26.014-33.098
					c2.044,0,4.039,0.561,5.93,1.667c3.132,1.832,4.953,4.567,5.269,7.91c0.946,10.024-12.113,22.593-17.771,27.532
					C1069.906,116.678,1069.202,116.928,1068.494,116.928z M1060.696,108.786c2.69,0,5.2,0.512,7.381,1.496
					c9.104-8.284,14.626-16.434,14.189-21.062c-0.091-0.953-0.436-2.189-2.325-3.294c-0.973-0.569-1.922-0.846-2.9-0.846
					c-6.382,0-14.056,11.596-18.598,23.825C1059.194,108.826,1059.946,108.786,1060.696,108.786z"/>
			</g>
			<g>
				<path fill="#565F73" d="M1101.641,147.368c-10.673,0-25.548-7.204-34.851-13.898c-0.725-0.521-1.18-1.338-1.241-2.229
					s0.277-1.763,0.924-2.378c2.635-2.51,4.012-5.582,3.683-8.218c-0.101-0.8,0.126-1.607,0.629-2.239
					c0.502-0.631,1.236-1.034,2.039-1.117c2.838-0.293,5.836-0.442,8.911-0.442c7.225,0,24.763,0.922,31.569,9.461
					c2.451,3.075,3.254,6.855,2.322,10.931C1114.132,143.771,1109.165,147.368,1101.641,147.368z M1073.028,130.47
					c8.717,5.677,20.562,10.898,28.612,10.898c6.104,0,7.554-2.921,8.136-5.467c0.533-2.328,0.163-4.188-1.164-5.854
					c-3.541-4.441-13.84-7.201-26.878-7.201c-1.889,0-3.795,0.063-5.626,0.185C1075.798,125.585,1074.742,128.133,1073.028,130.47z"
					/>
			</g>
			<g>
				<path fill="#565F73" d="M1074.367,173.916c-15.837,0-21.689-24.152-22.572-36.924c-0.056-0.813,0.222-1.614,0.768-2.219
					c0.547-0.604,1.316-0.96,2.131-0.986c2.312-0.073,4.719-0.656,6.957-1.688c2.155-0.992,4.072-2.365,5.544-3.97
					c1.041-1.137,2.773-1.298,4.008-0.375c10.007,7.485,21.418,20.158,20.644,31.24c-0.254,3.626-1.979,8.73-8.765,12.46
					C1080.11,173.087,1077.179,173.916,1074.367,173.916z M1058.05,139.457c1.477,12.673,7.085,28.458,16.317,28.458
					c1.789,0,3.748-0.578,5.823-1.719c3.595-1.976,5.449-4.469,5.67-7.621c0.523-7.49-7.728-17.562-16.259-24.465
					c-1.612,1.356-3.456,2.524-5.441,3.439C1062.198,138.453,1060.128,139.097,1058.05,139.457z"/>
			</g>
			<g>
				<path fill="#565F73" d="M1010.163,162.033c-4.01,0-7.271-1.796-9.431-5.194c-2.161-3.402-2.398-7.155-0.687-10.854
					c5.356-11.571,30.169-20.917,41.416-22.477c0.885-0.122,1.769,0.153,2.427,0.749c0.658,0.596,1.018,1.454,0.983,2.341
					c-0.043,1.074,0.167,2.079,0.624,2.986c0.243,0.483,0.558,0.939,0.932,1.353c0.935,1.031,1.037,2.568,0.249,3.715
					C1040.11,144.199,1022.659,162.033,1010.163,162.033z M1039.269,130c-11.248,2.458-30.078,10.513-33.777,18.505
					c-0.858,1.854-0.764,3.432,0.306,5.115c1.06,1.668,2.406,2.412,4.366,2.412c8.38,0,22.905-13.104,30.344-23.072
					c-0.131-0.222-0.255-0.449-0.37-0.679C1039.767,131.546,1039.478,130.785,1039.269,130z"/>
			</g>
			<g>
				<path fill="#565F73" d="M1027.447,130.375c-10.18,0-17.097-2.003-20.559-5.953c-1.968-2.246-2.786-5.109-2.365-8.279
					c0.544-4.102,3.562-10.982,17.658-10.982c9.96,0,21.751,3.289,29.464,6.367c1.071,0.428,1.803,1.432,1.881,2.584
					c0.078,1.151-0.512,2.246-1.517,2.813c-4.1,2.318-6.899,6.036-7.132,9.471c-0.095,1.401-1.148,2.549-2.536,2.762
					C1037.176,129.955,1032.025,130.375,1027.447,130.375z M1022.182,111.161c-7.263,0-11.202,1.941-11.711,5.771
					c-0.194,1.466,0.102,2.59,0.931,3.537c2.176,2.483,8.024,3.907,16.046,3.907c3.65,0,7.707-0.289,11.844-0.839
					c0.763-2.974,2.515-5.851,5.006-8.28C1037.686,113.103,1029.287,111.161,1022.182,111.161z"/>
			</g>
			<g>
				<path fill="#565F73" d="M1040.693,114.032c-0.83,0-1.656-0.343-2.249-1.014c-5.734-6.492-8.266-12.232-7.524-17.063
					c0.336-2.194,1.562-5.307,5.485-7.675c3.098-1.87,6.325-2.38,9.599-1.521c6.354,1.671,11.232,8.306,14.206,13.578
					c0.813,1.443,0.304,3.273-1.14,4.087c-1.443,0.813-3.272,0.304-4.087-1.14c-3.398-6.027-7.13-9.835-10.506-10.723
					c-1.667-0.438-3.294-0.159-4.973,0.854c-2.1,1.268-2.521,2.575-2.654,3.448c-0.439,2.862,1.78,7.302,6.09,12.182
					c1.098,1.242,0.979,3.138-0.262,4.234C1042.107,113.785,1041.399,114.032,1040.693,114.032z"/>
			</g>
			<g>
				<path fill="#565F73" d="M1038.039,177.359c-1.99,0-4.042-0.491-6.099-1.461c-4.296-2.024-6.945-5.394-7.661-9.744
					c-1.944-11.817,10.562-27.517,18.259-34.93c1.166-1.124,3.013-1.119,4.175,0.012c1.975,1.924,5.465,2.863,9.2,2.465
					c0.865-0.096,1.721,0.193,2.356,0.781c0.636,0.589,0.986,1.423,0.961,2.29C1058.771,152.463,1052.611,177.359,1038.039,177.359z
					 M1044.883,137.362c-8.279,8.582-15.864,20.637-14.683,27.818c0.397,2.415,1.764,4.096,4.299,5.291
					c1.25,0.589,2.44,0.888,3.54,0.888c8.159,0,13.905-17.475,15.021-31.595C1049.98,139.602,1047.18,138.773,1044.883,137.362z"/>
			</g>
		</g>
		<g>
			<path fill="#565F73" d="M1069.37,241.023c-0.604,0-1.214-0.182-1.743-0.56c-1.347-0.964-1.658-2.838-0.693-4.186
				c19.559-27.335,16.938-50.206,11.295-64.579c-0.606-1.542,0.153-3.283,1.695-3.889c1.544-0.605,3.284,0.154,3.889,1.696
				c6.188,15.756,9.127,40.737-12,70.263C1071.228,240.587,1070.306,241.023,1069.37,241.023z"/>
		</g>
		<g>
			<path fill="#565F73" d="M1118.772,206.972L1118.772,206.972c-0.296,0-0.604-0.037-0.915-0.108
				c-12.847-2.937-30.118-5.269-30.291-5.292c-0.845-0.113-1.602-0.58-2.081-1.285c-0.479-0.704-0.638-1.579-0.434-2.407
				c3.194-12.956,7.602-17.695,8.722-18.73c4.474-4.97,9.043-7.613,13.583-7.856c0.583-0.031,1.183,0.113,1.693,0.417
				c1.446,0.86,2.382,2.192,2.635,3.752c0.022,0.139,0.039,0.277,0.051,0.415l5.766-1.205c2.267-0.475,5.369-0.737,8.734-0.737
				c3.154,0,13.712,0.269,17.135,3.729c0.986,0.999,1.364,2.336,1.036,3.672c-0.232,0.952-0.861,3.513-10.715,7.462
				c4.833,2.716,4.301,4.887,4.033,5.978c-0.614,2.501-1.962,5.058-7.299,5.058c-1.775,0-4.098-0.26-7.101-0.794
				c-1.431-0.255-2.858-0.499-4.064-0.663c3.003,3.583,3.211,5.193,2.531,6.689C1121.26,206.242,1120.103,206.972,1118.772,206.972z
				 M1091.747,196.104c4.582,0.669,13.128,1.983,21.283,3.602c-0.91-1.802-1.546-3.714-0.508-5.479
				c1.211-2.056,3.638-2.056,4.435-2.056c1.673,0,4.079,0.369,7.42,0.963c2.561,0.456,4.565,0.692,5.961,0.701
				c-1.544-0.783-3.79-1.708-5.911-2.397c-1.238-0.402-2.075-1.557-2.073-2.858s0.844-2.454,2.083-2.852
				c4.629-1.487,9.293-3.376,12.037-4.805c-2.202-0.518-5.679-0.986-10.238-0.986c-2.965,0-5.63,0.216-7.506,0.609l-10.942,2.287
				c-1.253,0.262-2.546-0.306-3.198-1.415c-0.642-1.089-0.53-2.461,0.271-3.432c-2.137,0.915-4.417,2.702-6.726,5.288
				c-0.103,0.114-0.213,0.221-0.332,0.318l0,0C1097.806,183.593,1094.568,186.585,1091.747,196.104z"/>
		</g>
	</g>
	<g>
		<g>
			<g>
				<g>
					<path fill="#565F73" d="M1032.183,795.594c-0.519,0-1.037-0.135-1.502-0.403l-32.388-18.732
						c-0.928-0.536-1.499-1.527-1.498-2.599l0.027-37.414c0.001-1.072,0.573-2.062,1.502-2.598l32.416-18.684
						c1.436-0.827,3.27-0.334,4.098,1.102c0.827,1.436,0.334,3.27-1.102,4.098l-30.915,17.818l-0.025,33.95l29.39,16.998
						l29.414-16.955l0.003-3.722c0.001-1.656,1.344-2.998,3-2.998h0.002c1.657,0.001,2.999,1.346,2.998,3.002l-0.004,5.454
						c-0.001,1.072-0.573,2.062-1.502,2.598l-32.416,18.685C1033.217,795.46,1032.7,795.594,1032.183,795.594z"/>
				</g>
				<g>
					<path fill="#565F73" d="M1111.198,795.594c-0.519,0-1.037-0.135-1.502-0.403l-32.388-18.732
						c-0.928-0.536-1.499-1.527-1.498-2.6l0.005-5.43c0.002-1.655,1.345-2.997,3-2.997h0.003c1.656,0.002,2.999,1.346,2.997,3.003
						l-0.003,3.697l29.389,16.998l29.414-16.954l0.025-33.95l-30.889-17.865c-1.435-0.829-1.925-2.664-1.095-4.099
						c0.829-1.434,2.665-1.924,4.099-1.095l32.388,18.732c0.928,0.536,1.499,1.527,1.498,2.599l-0.027,37.414
						c-0.001,1.072-0.573,2.062-1.502,2.598l-32.416,18.684C1112.232,795.46,1111.716,795.594,1111.198,795.594z"/>
				</g>
				<g>
					<path fill="#565F73" d="M1104.106,709.506c0,0-0.001,0-0.002,0c-1.657-0.001-2.999-1.346-2.998-3.002l0.027-35.681
						l-29.391-16.998l-29.413,16.954l-0.027,35.682c-0.001,1.656-1.344,2.998-3,2.998c-0.001,0-0.002,0-0.002,0
						c-1.657-0.001-2.999-1.346-2.998-3.002l0.028-37.414c0.001-1.072,0.573-2.062,1.502-2.598l32.415-18.684
						c0.929-0.533,2.071-0.534,3,0.003l32.389,18.732c0.928,0.536,1.499,1.527,1.498,2.599l-0.028,37.412
						C1107.105,708.164,1105.763,709.506,1104.106,709.506z"/>
				</g>
			</g>
		</g>
		<g>
			<g>
				<path fill="#565F73" d="M1071.464,761.743c-0.626,0-1.253-0.195-1.782-0.587c-0.493-0.364-12.134-9.067-16.15-21.209
					c-0.52-1.573,0.334-3.271,1.906-3.791c1.581-0.521,3.271,0.335,3.791,1.906c2.559,7.738,9.065,14.071,12.232,16.809
					c3.094-2.679,9.385-8.8,12.053-16.266c0.558-1.561,2.272-2.372,3.835-1.815c1.561,0.558,2.373,2.274,1.815,3.835
					c-4.215,11.791-15.442,20.181-15.918,20.531C1072.716,761.548,1072.09,761.743,1071.464,761.743z"/>
			</g>
			<g>
				<path fill="#565F73" d="M1059.682,706.642c-0.068,0-0.137-0.002-0.205-0.007c-1.653-0.111-2.902-1.543-2.791-3.195
					c0.577-8.541,6.864-15.23,14.312-15.23c7.125,0.001,13.237,6.117,14.218,14.226c0.198,1.646-0.974,3.14-2.618,3.339
					c-1.641,0.195-3.14-0.974-3.339-2.618c-0.616-5.1-4.168-8.945-8.262-8.946c-4.303,0-7.96,4.232-8.325,9.635
					C1062.564,705.428,1061.246,706.642,1059.682,706.642z"/>
			</g>
			<g>
				<path fill="#565F73" d="M1043.253,755.614c-0.001,0-0.002,0-0.004,0c-3.221-0.001-6.507-1.47-9.767-4.364
					c-6.387-5.672-8.206-12.766-5.263-20.513c2.715-7.145,9.408-14.811,19.894-22.786c2.723-2.071,14.179-10.174,16.454-10.174
					c0.322,0,0.642,0.052,0.947,0.153l0.467,0.155c1.339,0.445,2.187,1.765,2.035,3.168c-0.058,0.537-1.456,13.298-4.894,26.289
					C1058.124,746.432,1051.624,755.614,1043.253,755.614z M1061.368,706.058c-8.772,5.474-26.745,18.437-28.4,30.055
					c-0.567,3.976,0.905,7.459,4.499,10.651c2.129,1.891,4.075,2.851,5.784,2.851
					C1051.762,749.617,1058.577,725.706,1061.368,706.058z"/>
			</g>
			<g>
				<path fill="#565F73" d="M1099.237,755.614c-8.373,0-14.873-9.183-19.871-28.073c-3.438-12.991-4.836-25.75-4.894-26.287
					c-0.151-1.402,0.695-2.721,2.034-3.167l0.466-0.155c0.306-0.103,0.626-0.154,0.948-0.154c2.275,0,13.731,8.103,16.454,10.174
					c10.485,7.976,17.179,15.642,19.894,22.786c2.943,7.747,1.124,14.841-5.263,20.513
					C1105.744,754.146,1102.458,755.614,1099.237,755.614z M1081.121,706.058c2.79,19.647,9.605,43.557,18.116,43.557
					c1.708,0,3.654-0.959,5.784-2.851c3.594-3.192,5.066-6.676,4.499-10.651C1107.865,724.495,1089.895,711.532,1081.121,706.058z"
					/>
			</g>
			<g>
				<path fill="#565F73" d="M1071.05,715.894c-6.369,0-8.371-1.997-8.998-3.188c-0.771-1.466-0.208-3.28,1.259-4.052
					c1.25-0.659,2.755-0.346,3.649,0.673c0.297,0.145,1.399,0.567,4.09,0.567c3.103,0,4.3-0.562,4.547-0.7
					c1.03-1.04,2.694-1.193,3.907-0.3c1.334,0.982,1.619,2.861,0.636,4.194C1079.367,714.136,1077.16,715.894,1071.05,715.894z"/>
			</g>
			<g>
				<path fill="#565F73" d="M1080.562,729.378h-18.191c-1.657,0-3-1.343-3-3s1.343-3,3-3h18.191c1.657,0,3,1.343,3,3
					S1082.219,729.378,1080.562,729.378z"/>
			</g>
			<g>
				<path fill="#565F73" d="M1083.815,742.448h-24.025c-1.657,0-3-1.343-3-3s1.343-3,3-3h24.025c1.657,0,3,1.343,3,3
					S1085.473,742.448,1083.815,742.448z"/>
			</g>
		</g>
	</g>
	<g>
		<g>
			<path fill="#565F73" d="M1050.493,503.493c-0.578,0-1.148-0.167-1.64-0.488c-1.011-0.659-24.812-16.494-29.158-45.35
				c-0.19-1.266,0.442-2.513,1.576-3.105c0.439-0.229,44.101-23.143,62.65-39.418c16.44-14.427,37.703-31.624,45.635-31.624
				c2.339,0,3.573,1.206,4.101,1.924c2.44,3.323-0.256,7.776-5.852,14.111c6.22-4.749,10.558-7.503,13.708-7.503
				c1.397,0,2.633,0.536,3.479,1.508c3.883,4.472-0.541,10.951-8.417,18.905c2.601-1.054,5.091-1.761,7.169-1.761
				c3.633,0,5.198,2.041,5.808,3.257c0.454,0.907,0.852,2.385,0.167,4.276c-1.24,3.43-6.329,7.33-11.726,10.658
				c4.53,0.146,7.02,1.618,7.404,4.381c0.781,5.622-7.366,9.216-24.389,16.174c-8.87,3.625-18.042,7.374-23.8,11.147
				c-14.991,9.823-35.206,26.995-44.164,41.485c-0.425,0.688-1.109,1.175-1.898,1.351
				C1050.93,503.47,1050.711,503.493,1050.493,503.493z M1025.985,458.845c3.805,19.865,18.014,32.834,23.737,37.353
				c10.109-14.629,29.582-31.054,44.197-40.63c6.241-4.09,15.686-7.95,24.818-11.683c6.504-2.658,15.779-6.449,19.368-8.994
				c-0.261-0.011-0.552-0.018-0.878-0.018c-5.662,0-14.501,1.979-14.59,2c-1.507,0.345-3.028-0.521-3.511-1.991
				c-0.482-1.469,0.231-3.064,1.648-3.684c8.224-3.597,21.107-11.094,23.083-14.502c-0.036-0.001-0.074-0.002-0.115-0.002
				c-3.592,0-11.105,4.264-15.595,6.812c-4.268,2.422-5.56,3.12-6.93,3.12c-0.881,0-1.696-0.333-2.297-0.94
				c-0.573-0.58-0.916-1.451-0.896-2.266c0.043-1.788,1.121-2.783,6.302-7.566c3.689-3.405,14.183-13.093,15.827-17.387
				c-3.364,1.557-10.251,7.01-14.212,10.146c-8.054,6.377-11.092,8.609-13.561,8.61h-0.002c-0.889,0-1.7-0.29-2.347-0.836
				c-0.738-0.625-1.176-1.512-1.23-2.498c-0.138-2.496,2.031-5.007,8.776-12.125c3.048-3.216,8.229-8.684,10.187-11.831
				c-5.508,2.031-19.071,11.443-39.888,29.709C1070.842,434.59,1034.826,454.137,1025.985,458.845z"/>
		</g>
		<g>
			<path fill="#565F73" d="M1073.769,447.144c-1.128,0-2.209-0.639-2.719-1.728c-0.702-1.5-0.056-3.287,1.444-3.989
				c0.126-0.059,12.651-5.951,19.408-11.273c2.83-2.229,8.719-6.867,8.575-8.395v0c0,0-0.007-0.02-0.03-0.058
				c-2.3-0.749-11.315,2.176-15.693,3.596c-2.845,0.923-5.301,1.719-7.118,2.126c-1.621,0.36-3.222-0.656-3.583-2.272
				s0.655-3.221,2.272-3.583c1.543-0.345,3.988-1.138,6.577-1.978c11.175-3.624,18.74-5.72,21.975-1.961
				c1.193,1.388,1.737,3.026,1.571,4.737c-0.417,4.296-5.244,8.098-10.833,12.501c-7.303,5.752-20.038,11.742-20.576,11.994
				C1074.627,447.053,1074.194,447.144,1073.769,447.144z"/>
		</g>
		<g>
			<path fill="#565F73" d="M1041.112,511.079c-0.048,0-0.096-0.001-0.145-0.004c-1.192-0.057-29.404-1.67-46.999-24.678
				c-0.764-0.998-0.824-2.366-0.151-3.428c0.27-0.426,27.063-42.847,35.321-66.592c11.002-31.636,19.411-48.901,24.993-51.317
				c1.645-0.713,2.987-0.417,3.822-0.045c4.33,1.932,3.336,8.277,0.567,19.187c5.763-12.936,9.247-19.547,14.159-18.316
				c0.049,0.012,0.097,0.025,0.145,0.04c1.583,0.483,2.822,1.557,3.582,3.106c1.9,3.873,0.494,10.752-2.146,18.816
				c3.474-4.436,5.845-6.506,8.149-6.806c1.188-0.157,2.322,0.174,3.206,0.924c3.223,2.738,2.61,7.767-0.698,15.112
				c4.042-2.693,7.148-3.228,9.288-1.583c1.313,1.01,1.559,2.894,0.549,4.207c-0.9,1.17-2.495,1.492-3.762,0.833
				c-2.452,0.5-9.872,7.219-16.227,14.737c-1.006,1.191-2.761,1.414-4.031,0.507c-1.271-0.905-1.636-2.634-0.839-3.976
				c0.334-0.562,0.739-1.23,1.196-1.985c7.751-12.797,10.126-18.736,10.604-21.484c-2.601,2.702-6.62,8.482-8.788,11.598
				c-4.827,6.941-5.831,8.387-8.383,7.688c-0.816-0.224-1.561-0.835-1.943-1.591c-0.812-1.605-0.357-2.804,2.166-9.457
				c1.653-4.358,3.918-10.327,5.301-15.528c1.285-4.829,1.347-7.283,1.198-8.463c-2.375,3.016-6.229,11.746-8.434,16.739
				c-5.138,11.638-6.771,14.975-10.059,14.786c-1.102-0.066-2.107-0.619-2.759-1.518c-1.668-2.299-0.876-6.106,1.813-16.4
				c1.015-3.884,2.706-10.357,3.06-14.008c-3.24,4.21-9.928,17.017-20.064,46.166c-7.595,21.836-29.47,57.502-34.783,66.021
				c12.731,15.323,31.226,19.372,38.32,20.39c0.054-0.57,0.115-1.149,0.184-1.737c0.191-1.646,1.682-2.82,3.327-2.632
				c1.646,0.191,2.824,1.682,2.632,3.327c-0.185,1.583-0.312,3.099-0.377,4.503c-0.038,0.796-0.39,1.543-0.979,2.079
				C1042.577,510.802,1041.856,511.079,1041.112,511.079z"/>
		</g>
	</g>
	<g>
		<g>
			<path fill="#565F73" d="M354.615,795.594c-19.562,0-35.477-15.914-35.477-35.476c0-7.658,5.188-21.042,15.417-39.78
				c8.456-15.492,17.459-29.277,17.549-29.414c0.554-0.847,1.498-1.357,2.51-1.357c1.012,0,1.956,0.51,2.51,1.356
				c1.346,2.057,32.968,50.577,32.968,69.195C390.093,779.68,374.178,795.594,354.615,795.594z M354.623,698.125
				c-3.241,5.139-9.145,14.727-14.8,25.088c-12.137,22.229-14.684,32.339-14.684,36.905c0,16.253,13.223,29.476,29.477,29.476
				c16.254,0,29.478-13.223,29.478-29.476C384.093,747.315,364.715,714.065,354.623,698.125z"/>
		</g>
		<g>
			<path fill="#565F73" d="M415.571,748.368h-19.51c-1.657,0-3-1.343-3-3s1.343-3,3-3h17.778l29.228-50.623l-29.228-50.625h-58.457
				l-29.228,50.625l7.975,13.813c0.828,1.435,0.337,3.27-1.098,4.098c-1.435,0.832-3.27,0.338-4.098-1.098l-8.841-15.313
				c-0.536-0.929-0.536-2.072,0-3l30.96-53.625c0.536-0.928,1.526-1.5,2.598-1.5h61.92c1.072,0,2.062,0.572,2.598,1.5l30.96,53.625
				c0.536,0.929,0.536,2.072,0,3l-30.96,53.623C417.633,747.797,416.643,748.368,415.571,748.368z"/>
		</g>
		<g>
			<path fill="#565F73" d="M357.577,782.182c-1.508,0-2.807-1.135-2.978-2.669c-0.183-1.646,1.003-3.13,2.65-3.312
				c11.375-1.264,10.866-15.347,10.839-15.945c-0.075-1.655,1.206-3.059,2.861-3.134c1.647-0.074,3.058,1.206,3.133,2.86
				c0.319,7.016-2.65,20.68-16.17,22.182C357.8,782.176,357.688,782.182,357.577,782.182z"/>
		</g>
	</g>
	<g>
		<g>
			<g>
				<path fill="#565F73" d="M628.134,511.079l-0.347-0.004l-0.347,0.004c-13.334,0-36.07-2.358-37.853-11.135
					c-0.415-1.112-1.313-3.289-2.43-5.995c-7.208-17.464-24.09-58.361-24.466-82.217c-0.148-9.386,2.173-16.579,6.898-21.379
					c5.196-5.278,11.95-6.386,16.701-6.386c0.523,0,1.01,0.014,1.453,0.036c0.378-2.096,0.611-5.693-0.673-10.359
					c-2.333-8.467-4.01-12.837-4.027-12.88c-0.315-0.816-0.259-1.73,0.155-2.501s1.144-1.323,1.999-1.511
					c13.935-3.063,23.707-4.923,41.855-4.923l0.752,0.004l0.716-0.004c18.15,0,27.922,1.86,41.857,4.923
					c0.854,0.188,1.584,0.741,1.998,1.512c0.414,0.771,0.471,1.686,0.155,2.502c-0.017,0.043-1.696,4.412-4.026,12.879
					c-1.277,4.636-1.041,8.251-0.665,10.358c0.44-0.021,0.924-0.035,1.444-0.035c4.75,0,11.504,1.108,16.7,6.387
					c4.725,4.8,7.046,11.993,6.898,21.379c-0.375,23.86-17.259,64.761-24.469,82.227c-1.115,2.701-2.013,4.874-2.427,5.985
					C664.205,508.722,641.469,511.079,628.134,511.079z M627.787,505.075l0.347,0.004c19.334,0,31.099-4.144,31.983-6.365
					c0.027-0.215,0.063-0.355,0.136-0.56c0.413-1.151,1.337-3.389,2.615-6.485c6.47-15.675,23.658-57.312,24.015-80.031
					c0.122-7.719-1.619-13.464-5.175-17.076c-3.739-3.798-8.82-4.596-12.424-4.596c-1.86,0-3.111,0.224-3.124,0.226
					c-1.369,0.254-2.755-0.481-3.307-1.77c-0.115-0.27-2.793-6.717-0.134-16.372c1.248-4.534,2.311-7.918,3.057-10.159
					c-12.884-2.758-21.606-4.063-37.256-4.063l-0.716,0.004l-0.752-0.004c-15.647,0-24.371,1.305-37.255,4.063
					c0.746,2.241,1.808,5.625,3.057,10.159c2.659,9.656-0.018,16.103-0.133,16.373c-0.553,1.295-1.933,2.029-3.316,1.769
					c-0.003,0-1.254-0.225-3.114-0.225c-3.604,0-8.686,0.797-12.425,4.595c-3.555,3.612-5.296,9.357-5.175,17.076
					c0.358,22.716,17.543,64.35,24.013,80.023c1.28,3.102,2.205,5.342,2.618,6.494c0.073,0.204,0.124,0.415,0.151,0.629
					c0.869,2.152,12.634,6.296,31.967,6.296L627.787,505.075z"/>
			</g>
			<g>
				<path fill="#565F73" d="M645.23,423.223c-5.755,0-10.437-4.682-10.437-10.437V390.79c-0.506,0.065-1.017,0.098-1.528,0.098
					c-6.646,0-12.053-5.408-12.053-12.054v-23.989c0-1.657,1.343-3,3-3s3,1.343,3,3v23.989c0,3.338,2.715,6.054,6.053,6.054
					c1.07,0,2.089-0.275,3.024-0.817c0.93-0.537,2.072-0.539,3.002-0.003s1.502,1.527,1.502,2.599v26.12
					c0,2.447,1.99,4.437,4.437,4.437c2.447,0,4.438-1.99,4.438-4.437v-7.03c0-1.296,0.832-2.446,2.063-2.85
					c1.233-0.405,2.584,0.027,3.353,1.071c1.961,2.664,4.97,4.192,8.253,4.192c5.656,0,10.258-4.602,10.258-10.258v-9.843
					c0-1.657,1.343-3,3-3s3,1.343,3,3v9.843c0,8.964-7.293,16.258-16.258,16.258c-2.701,0-5.334-0.686-7.669-1.941v0.558
					C655.669,418.541,650.986,423.223,645.23,423.223z"/>
			</g>
		</g>
		<g>
			<path fill="#565F73" d="M629.127,493.617l-0.46-0.004l-0.375,0.004c-17.192,0-37.167-2.597-43.034-8.396
				c-1.179-1.165-1.189-3.064-0.024-4.243c1.164-1.179,3.064-1.189,4.242-0.024c3.313,3.276,18.739,6.664,38.816,6.664l0.374-0.004
				l0.461,0.004c16.05,0,30.556-2.129,36.955-5.423c1.476-0.761,3.281-0.179,4.04,1.294s0.18,3.282-1.294,4.04
				C661.533,491.284,646.32,493.617,629.127,493.617z"/>
		</g>
	</g>
	<g>
		<g>
			<path fill="#565F73" d="M877.501,502.135c-39.55,0-88.021-36.8-90.065-38.366c-0.74-0.567-1.175-1.447-1.175-2.381
				s0.435-1.813,1.175-2.381c2.044-1.566,50.516-38.37,90.065-38.37c48.676,0,55.943,25.531,55.943,40.75
				C933.444,476.605,926.177,502.135,877.501,502.135z M794.348,461.388c11.519,8.2,51.278,34.747,83.153,34.747
				c32.673,0,49.943-12.016,49.943-34.747c0-22.734-17.271-34.75-49.943-34.75C845.626,426.637,805.866,453.187,794.348,461.388z"/>
		</g>
		<g>
			<circle fill="#565F73" cx="911.751" cy="454.707" r="7.696"/>
		</g>
		<g>
			<path fill="#565F73" d="M822.204,443.435c-0.395,0-0.795-0.078-1.18-0.243c-18.177-7.781-28.87-17.125-31.781-27.774
				c-2.185-7.991,0.007-16.543,6.514-25.42c6.794-9.268,14.867-13.965,23.999-13.965c0.106,0,0.212,0,0.319,0.002
				c20.663,0.247,42.293,25.108,56.8,45.921c0.947,1.359,0.613,3.229-0.745,4.176c-1.362,0.949-3.229,0.614-4.177-0.746
				c-13.702-19.658-33.837-43.137-51.949-43.353c-7.33-0.06-13.665,3.677-19.407,11.51c-5.371,7.327-7.244,14.154-5.566,20.291
				c2.405,8.795,11.945,16.816,28.355,23.841c1.523,0.652,2.229,2.415,1.577,3.938C824.476,442.753,823.368,443.435,822.204,443.435
				z"/>
		</g>
		<g>
			<path fill="#565F73" d="M897.375,428.748c-0.222,0-0.444-0.024-0.665-0.075c-5.943-1.351-12.786-2.036-20.337-2.036
				c-1.657,0-3-1.343-3-3s1.343-3,3-3c6.337,0,12.23,0.461,17.578,1.375c-3.311-28.208-10.722-46.393-21.517-52.706
				c-5.973-3.495-12.982-3.397-21.428,0.297c-7.272,3.181-11.937,7.409-13.861,12.568c-0.579,1.553-2.308,2.34-3.859,1.762
				c-1.552-0.579-2.341-2.307-1.762-3.859c2.514-6.738,8.26-12.111,17.078-15.967c10.185-4.455,19.222-4.448,26.861,0.021
				c13.212,7.727,21.588,28.358,24.896,61.321c0.096,0.96-0.275,1.909-0.999,2.548C898.808,428.485,898.099,428.748,897.375,428.748
				z"/>
		</g>
		<g>
			<path fill="#565F73" d="M818.266,482.027c-1.657,0-3-1.343-3-3v-35.931c0-1.657,1.343-3,3-3s3,1.343,3,3v35.931
				C821.266,480.685,819.923,482.027,818.266,482.027z"/>
		</g>
		<g>
			<path fill="#565F73" d="M843.195,494.798c-1.657,0-3-1.343-3-3v-60.457c0-1.657,1.343-3,3-3s3,1.343,3,3v60.457
				C846.195,493.455,844.853,494.798,843.195,494.798z"/>
		</g>
		<g>
			<path fill="#565F73" d="M868.123,500.04c-1.657,0-3-1.343-3-3v-71.972c0-1.657,1.343-3,3-3s3,1.343,3,3v71.972
				C871.123,498.697,869.78,500.04,868.123,500.04z"/>
		</g>
		<g>
			<path fill="#565F73" d="M893.052,500.389c-1.657,0-3-1.343-3-3V425.05c0-1.657,1.343-3,3-3s3,1.343,3,3v72.338
				C896.052,499.046,894.709,500.389,893.052,500.389z"/>
		</g>
		<g>
			<path fill="#565F73" d="M932.542,463.861c-1.588,0-2.913-1.246-2.993-2.851c-0.083-1.654,1.191-3.062,2.847-3.146l8.375-0.419
				c1.645-0.087,3.062,1.191,3.146,2.847c0.083,1.654-1.191,3.062-2.847,3.146l-8.375,0.419
				C932.644,463.86,932.593,463.861,932.542,463.861z"/>
		</g>
	</g>
</g>
</svg>
